<svg width="160" height="31" viewBox="0 0 160 31" fill="none" xmlns="http://www.w3.org/2000/svg">
<path d="M10.7145 12.0766C10.6189 11.8567 10.485 11.632 10.3129 11.4025C10.1503 11.173 9.95906 10.9626 9.73913 10.7714C9.5192 10.5801 9.28014 10.4271 9.02196 10.3124C8.76378 10.1881 8.49126 10.1259 8.20439 10.1259C7.81234 10.1259 7.4442 10.2885 7.09996 10.6136C6.75571 10.9387 6.4545 11.3738 6.19632 11.9188C5.93814 12.4543 5.73256 13.0711 5.57956 13.7691C5.43613 14.4576 5.36441 15.1748 5.36441 15.9206C5.36441 16.3796 5.40266 16.8147 5.47916 17.2259C5.56522 17.6275 5.69431 17.9813 5.86643 18.2873C6.03855 18.5933 6.25848 18.8371 6.52622 19.0188C6.80353 19.2005 7.13342 19.2913 7.51591 19.2913C8.08965 19.2913 8.61557 19.1144 9.09368 18.7606C9.57179 18.3972 9.97819 17.9287 10.3129 17.355C10.3224 17.1542 10.3368 16.9151 10.3559 16.6378C10.375 16.3605 10.3989 16.0258 10.4276 15.6338C10.4563 15.2321 10.4898 14.7636 10.528 14.2281C10.5758 13.6831 10.6332 13.0376 10.7001 12.2918L10.7145 12.0766ZM15.4621 20.74C15.3665 21.6866 15.1514 22.5712 14.8167 23.3935C14.482 24.2159 14.0565 24.9665 13.5401 25.6454C13.0333 26.3339 12.45 26.9459 11.7902 27.4814C11.14 28.0264 10.4467 28.4854 9.71044 28.8583C8.98371 29.2312 8.23308 29.5133 7.45854 29.7046C6.684 29.9054 5.91902 30.0058 5.1636 30.0058C4.76199 30.0058 4.35081 29.9914 3.93008 29.9628C3.50934 29.9341 3.09816 29.8767 2.69655 29.7906C2.29493 29.7141 1.91245 29.5994 1.54908 29.4464C1.18572 29.303 0.860601 29.1165 0.573734 28.887V28.8727C0.573734 28.8249 0.607202 28.6575 0.674137 28.3706C0.750635 28.0838 0.836695 27.7443 0.932317 27.3523C1.0375 26.9698 1.14269 26.5729 1.24787 26.1618C1.36262 25.7506 1.45824 25.3968 1.53474 25.1004C1.57299 24.9665 1.61124 24.8757 1.64948 24.8278C1.68773 24.78 1.73076 24.7561 1.77857 24.7561C1.83595 24.7561 1.86942 24.7609 1.87898 24.7705C2.15628 24.9522 2.41446 25.1004 2.65352 25.2151C2.90214 25.3394 3.16032 25.435 3.42806 25.502C3.70536 25.5785 4.00657 25.6311 4.33169 25.6598C4.65681 25.6884 5.03451 25.7028 5.46481 25.7028C6.13417 25.7028 6.72703 25.5737 7.24339 25.3155C7.75975 25.0573 8.20439 24.7227 8.57732 24.3115C8.95025 23.9003 9.24668 23.4461 9.46661 22.9489C9.6961 22.4612 9.85388 21.9783 9.93994 21.5002C9.25146 21.9592 8.55341 22.3321 7.84581 22.619C7.1382 22.9058 6.42582 23.0493 5.70865 23.0493C4.72374 23.0493 3.8727 22.8485 3.15554 22.4468C2.43837 22.0548 1.84551 21.5241 1.37696 20.8547C0.908412 20.1854 0.55939 19.4204 0.329897 18.5598C0.109966 17.6896 0 16.7812 0 15.8346C0 15.0887 0.0669356 14.3381 0.200807 13.5827C0.34424 12.8177 0.549828 12.0814 0.817571 11.3738C1.09488 10.6662 1.43433 10.0064 1.83595 9.3944C2.23756 8.77286 2.70133 8.23259 3.22725 7.7736C3.75318 7.31462 4.33647 6.95603 4.97714 6.69785C5.61781 6.43011 6.31585 6.29624 7.07127 6.29624C7.89362 6.29624 8.65382 6.47792 9.35186 6.84129C10.0595 7.20465 10.7001 7.65408 11.2739 8.18956C11.293 8.01744 11.3073 7.88357 11.3169 7.78795C11.3265 7.68276 11.3504 7.60148 11.3886 7.54411C11.4269 7.48674 11.489 7.44371 11.5751 7.41502C11.6707 7.38633 11.8046 7.35287 11.9767 7.31462C12.0819 7.29549 12.2731 7.25724 12.5504 7.19987C12.8277 7.13294 13.1576 7.05644 13.5401 6.97038C13.9226 6.88432 14.3433 6.79348 14.8023 6.69785C15.2613 6.60223 15.7251 6.50183 16.1936 6.39664C16.3084 6.36796 16.4136 6.35361 16.5092 6.35361C16.8056 6.35361 16.9538 6.54486 16.9538 6.92735C16.9538 6.97516 16.9538 7.02297 16.9538 7.07078C16.9538 7.10903 16.9491 7.15206 16.9395 7.19987L15.4621 20.74Z" fill="#BAC4D1"/>
<path d="M26.736 23.0493C25.3877 23.0493 24.202 22.8293 23.1788 22.3895C22.1652 21.9496 21.3142 21.3663 20.6257 20.6396C19.9372 19.9033 19.4209 19.0618 19.0766 18.1152C18.7324 17.1589 18.5603 16.1692 18.5603 15.1461C18.5603 14.1229 18.7276 13.1524 19.0623 12.2344C19.397 11.3068 19.8655 10.4797 20.468 9.75299C21.0704 9.01669 21.7923 8.40471 22.6338 7.91704C23.4753 7.4198 24.4028 7.08512 25.4164 6.913C25.5694 6.90344 25.6459 6.86997 25.6459 6.8126C25.6459 6.70742 25.6316 6.61179 25.6029 6.52573C25.5837 6.43011 25.5742 6.34883 25.5742 6.2819C25.5742 6.17671 25.5933 6.105 25.6316 6.06675C25.6698 6.0285 25.7128 6.00937 25.7606 6.00937C27.587 6.00937 29.1409 6.21974 30.4222 6.64048C31.7036 7.05166 32.7459 7.61583 33.5491 8.33299C34.3523 9.05016 34.9356 9.89642 35.299 10.8718C35.6623 11.8471 35.844 12.8942 35.844 14.013C35.844 15.4377 35.605 16.7095 35.1269 17.8283C34.6487 18.9471 33.9937 19.8937 33.1618 20.6683C32.3395 21.4428 31.3737 22.0309 30.2645 22.4325C29.1648 22.8437 27.9886 23.0493 26.736 23.0493ZM24.0825 14.9883C24.0825 15.5047 24.1351 16.0162 24.2403 16.523C24.355 17.0298 24.5367 17.4888 24.7853 17.9C25.0435 18.3112 25.3782 18.6459 25.7893 18.904C26.2005 19.1527 26.7121 19.277 27.3241 19.277C27.7639 19.2578 28.1464 19.1622 28.4715 18.9901C28.8062 18.8084 29.0931 18.5789 29.3321 18.3016C29.5712 18.0148 29.7672 17.6944 29.9202 17.3406C30.0828 16.9868 30.2071 16.6234 30.2931 16.2505C30.3888 15.868 30.4557 15.4951 30.4939 15.1317C30.5322 14.7684 30.5513 14.4385 30.5513 14.142C30.5513 13.6448 30.4748 13.1571 30.3218 12.679C30.1784 12.2009 29.9632 11.7802 29.6764 11.4168C29.3895 11.0534 29.0309 10.7618 28.6006 10.5419C28.1799 10.3124 27.6922 10.1976 27.1376 10.1976C26.5639 10.1976 26.081 10.3698 25.6889 10.714C25.2969 11.0487 24.9813 11.4646 24.7423 11.9619C24.5128 12.4591 24.3454 12.985 24.2403 13.5396C24.1351 14.0847 24.0825 14.5676 24.0825 14.9883Z" fill="#BAC4D1"/>
<path d="M58.5639 22.8198C58.4587 22.8485 58.32 22.8915 58.1479 22.9489C57.9758 23.0158 57.8085 23.0493 57.6459 23.0493C57.512 23.0493 57.3925 23.0158 57.2873 22.9489C57.1917 22.8819 57.1439 22.7672 57.1439 22.6046V22.5186C57.2108 21.8205 57.2682 21.2563 57.316 20.826C57.3638 20.3862 57.4021 20.0324 57.4307 19.7646C57.4594 19.4969 57.4833 19.2961 57.5025 19.1622C57.5216 19.0188 57.5407 18.8897 57.5598 18.775C57.579 18.6506 57.5933 18.5168 57.6029 18.3733C57.622 18.2299 57.6459 18.0291 57.6746 17.7709C57.7033 17.5032 57.7367 17.1542 57.775 16.7239C57.8228 16.284 57.8802 15.7103 57.9471 15.0027C57.9854 14.6202 58.0236 14.2425 58.0619 13.8695C58.1097 13.487 58.1336 13.138 58.1336 12.8225C58.1336 12.4208 58.1097 12.0575 58.0619 11.7324C58.0236 11.3977 57.9471 11.1156 57.8324 10.8861C57.7272 10.6471 57.579 10.4606 57.3877 10.3267C57.1965 10.1928 56.9526 10.1259 56.6562 10.1259C56.4745 10.1259 56.2355 10.1642 55.939 10.2407C55.6522 10.3172 55.3605 10.4558 55.0641 10.6566C54.7677 10.8479 54.4999 11.106 54.2609 11.4312C54.0218 11.7467 53.8688 12.1483 53.8019 12.636V12.6934C53.6871 13.7835 53.582 14.7301 53.4863 15.5334C53.4003 16.327 53.3238 17.0107 53.2568 17.5845C53.1899 18.1582 53.1325 18.6363 53.0847 19.0188C53.0465 19.4013 53.013 19.7264 52.9843 19.9941C52.9556 20.2523 52.9317 20.4675 52.9126 20.6396C52.903 20.8117 52.8983 20.9743 52.8983 21.1273C52.8983 21.2038 52.8983 21.2707 52.8983 21.3281C52.9078 21.3759 52.9126 21.4189 52.9126 21.4572C52.9126 21.5337 52.8743 21.6006 52.7978 21.658C52.7309 21.7058 52.5731 21.7679 52.3245 21.8444L48.9538 22.8198C48.8486 22.8485 48.71 22.8915 48.5379 22.9489C48.3658 23.0158 48.1984 23.0493 48.0359 23.0493C47.902 23.0493 47.7825 23.0158 47.6773 22.9489C47.5817 22.8819 47.5338 22.7672 47.5338 22.6046V22.5186C47.6008 21.8205 47.6534 21.2563 47.6916 20.826C47.7394 20.3862 47.7777 20.0324 47.8064 19.7646C47.8446 19.4969 47.8733 19.2961 47.8924 19.1622C47.9115 19.0188 47.9259 18.8897 47.9355 18.775C47.9546 18.6506 47.9737 18.5168 47.9928 18.3733C48.012 18.2299 48.0311 18.0291 48.0502 17.7709C48.0789 17.5032 48.1124 17.1542 48.1506 16.7239C48.1984 16.284 48.2558 15.7103 48.3227 15.0027C48.361 14.6202 48.3992 14.2425 48.4375 13.8695C48.4853 13.487 48.5092 13.138 48.5092 12.8225C48.5092 12.4208 48.4901 12.0575 48.4518 11.7324C48.4136 11.3977 48.3419 11.1156 48.2367 10.8861C48.141 10.6471 48.0072 10.4606 47.8351 10.3267C47.6629 10.1928 47.443 10.1259 47.1753 10.1259C46.984 10.1259 46.7211 10.1737 46.3864 10.2693C46.0613 10.365 45.7314 10.5227 45.3967 10.7427C45.0716 10.9626 44.7799 11.2543 44.5217 11.6176C44.2731 11.9714 44.1297 12.4113 44.0914 12.9372C44.0149 13.6448 43.9528 14.2281 43.905 14.6871C43.8572 15.1365 43.8189 15.5094 43.7902 15.8059C43.7615 16.0927 43.7376 16.327 43.7185 16.5087C43.709 16.6808 43.6994 16.8434 43.6898 16.9964C43.6803 17.0346 43.6659 17.1446 43.6468 17.3263C43.6277 17.4984 43.6038 17.7088 43.5751 17.9574C43.556 18.1964 43.532 18.4594 43.5034 18.7463C43.4842 19.0236 43.4651 19.2865 43.446 19.5351C43.4269 19.7742 43.4077 19.9846 43.3886 20.1663C43.3791 20.3384 43.3743 20.4436 43.3743 20.4818V20.74C43.3743 20.8356 43.3695 20.9169 43.3599 20.9838C43.3504 21.0508 43.3217 21.1129 43.2739 21.1703C43.2261 21.2277 43.1543 21.2803 43.0587 21.3281C42.9727 21.3759 42.8484 21.4285 42.6858 21.4858L38.9278 22.8198C38.8227 22.858 38.684 22.9058 38.5119 22.9632C38.3398 23.0206 38.1724 23.0493 38.0099 23.0493C37.876 23.0493 37.7565 23.0158 37.6513 22.9489C37.5557 22.8819 37.5078 22.7672 37.5078 22.6046L38.7987 7.97441C38.8274 7.65886 38.8609 7.44371 38.8991 7.32896C38.947 7.20465 39.0569 7.12337 39.229 7.08512C40.0992 6.913 40.9885 6.74088 41.8969 6.56876C42.8053 6.38708 43.6946 6.15759 44.5648 5.88028C44.6413 5.88028 44.6843 5.89463 44.6939 5.92331C44.713 5.94244 44.7225 5.97591 44.7225 6.02372L44.5361 8.11784C44.8899 7.93616 45.2867 7.74014 45.7266 7.52977C46.1664 7.30984 46.6254 7.10903 47.1035 6.92735C47.5912 6.74566 48.0837 6.59745 48.5809 6.4827C49.0877 6.35839 49.5802 6.29624 50.0583 6.29624C50.7181 6.29624 51.3253 6.44924 51.8799 6.75523C52.444 7.05166 52.9078 7.54889 53.2712 8.24693C53.7015 7.96963 54.1557 7.71145 54.6338 7.47239C55.1215 7.23334 55.6139 7.02775 56.1112 6.85563C56.618 6.68351 57.1248 6.54964 57.6316 6.45402C58.1384 6.35839 58.6308 6.31058 59.1089 6.31058C59.7113 6.31058 60.2803 6.39664 60.8158 6.56876C61.3513 6.74088 61.815 7.02297 62.2071 7.41502C62.6087 7.80707 62.9242 8.31865 63.1537 8.94976C63.3832 9.5713 63.498 10.3315 63.498 11.2304C63.498 11.4598 63.4932 11.6989 63.4836 11.9475C63.4741 12.1866 63.455 12.4352 63.4263 12.6934L62.7665 18.8323C62.7187 19.2339 62.69 19.6069 62.6804 19.9511C62.6708 20.2858 62.6661 20.6778 62.6661 21.1273C62.6661 21.2038 62.6661 21.2707 62.6661 21.3281C62.6756 21.3759 62.6804 21.4189 62.6804 21.4572C62.6804 21.5432 62.6422 21.6102 62.5657 21.658C62.4987 21.7058 62.341 21.7679 62.0923 21.8444L58.5639 22.8198Z" fill="#BAC4D1"/>
<path d="M74.2125 6.29624C75.1209 6.29624 75.9432 6.46836 76.6795 6.8126C77.4254 7.14728 78.0613 7.58714 78.5872 8.13219C79.1227 8.66767 79.5338 9.27009 79.8207 9.93945C80.1076 10.6088 80.251 11.2782 80.251 11.9475C80.251 12.5404 80.0693 13.138 79.706 13.7404C79.3426 14.3333 78.831 14.8688 78.1712 15.3469C77.521 15.825 76.7369 16.2123 75.8189 16.5087C74.9009 16.8051 73.8921 16.9533 72.7925 16.9533C72.2187 16.9533 71.6163 16.896 70.9852 16.7812C71.0235 17.1924 71.143 17.5462 71.3438 17.8426C71.5446 18.1391 71.798 18.3829 72.104 18.5741C72.41 18.7654 72.7542 18.9088 73.1367 19.0044C73.5288 19.0905 73.9304 19.1335 74.3416 19.1335C74.8005 19.1335 75.2404 19.0953 75.6611 19.0188C76.0914 18.9327 76.5026 18.8228 76.8947 18.6889C77.2867 18.555 77.6644 18.4068 78.0278 18.2442C78.3912 18.0817 78.7354 17.9191 79.0605 17.7566C79.1466 17.7374 79.2183 17.7231 79.2757 17.7135C79.3426 17.6944 79.4047 17.6849 79.4621 17.6849C79.4621 17.6849 79.4573 17.7614 79.4478 17.9143C79.4478 18.0673 79.4478 18.2825 79.4478 18.5598C79.4478 18.8371 79.443 19.1718 79.4334 19.5638C79.4334 19.9559 79.4287 20.391 79.4191 20.8691C79.4478 20.9169 79.4669 20.9647 79.4765 21.0125C79.486 21.0603 79.4908 21.0986 79.4908 21.1273C79.4908 21.242 79.3856 21.3663 79.1753 21.5002C78.9649 21.6341 78.6876 21.7727 78.3433 21.9161C78.0087 22.0596 77.6214 22.1982 77.1815 22.3321C76.7512 22.466 76.3114 22.5855 75.8619 22.6907C75.4125 22.8054 74.9774 22.8915 74.5567 22.9489C74.136 23.0158 73.7678 23.0493 73.4523 23.0493C72.4195 23.0493 71.4155 22.8676 70.4402 22.5042C69.4744 22.1504 68.6138 21.6388 67.8584 20.9695C67.1125 20.3001 66.5149 19.4873 66.0654 18.5311C65.616 17.5749 65.3913 16.4991 65.3913 15.3039C65.3913 14.0512 65.6065 12.8798 66.0368 11.7897C66.4671 10.6901 67.0695 9.73386 67.844 8.92107C68.6281 8.10828 69.5604 7.46761 70.641 6.99906C71.7215 6.53051 72.912 6.29624 74.2125 6.29624ZM74.0403 10.1116C73.6483 10.1116 73.2849 10.1976 72.9502 10.3698C72.6251 10.5323 72.3239 10.7714 72.0466 11.0869C71.7789 11.3929 71.5446 11.7658 71.3438 12.2057C71.143 12.636 70.9804 13.1141 70.8561 13.64C71.841 13.4679 72.6586 13.2862 73.3088 13.095C73.9591 12.9037 74.4802 12.7125 74.8723 12.5213C75.2643 12.3204 75.5416 12.1244 75.7042 11.9332C75.8667 11.7324 75.948 11.5411 75.948 11.3594C75.948 11.1873 75.8811 11.0248 75.7472 10.8718C75.6229 10.7188 75.4651 10.5849 75.2739 10.4702C75.0826 10.3554 74.8723 10.2693 74.6428 10.212C74.4228 10.145 74.222 10.1116 74.0403 10.1116Z" fill="#BAC4D1"/>
<path d="M83.9803 22.3034C83.789 22.3034 83.5834 22.2938 83.3635 22.2747C83.1531 22.2556 82.9571 22.2221 82.7754 22.1743C82.6033 22.1169 82.4551 22.0452 82.3308 21.9592C82.216 21.8731 82.1587 21.7584 82.1587 21.6149C82.1587 21.6054 82.1635 21.591 82.173 21.5719C82.1826 21.5528 82.1874 21.5337 82.1874 21.5145L87.2506 11.1299C86.8489 11.1299 86.3995 11.1395 85.9023 11.1586C85.4051 11.1682 84.903 11.1825 84.3962 11.2017C83.899 11.2112 83.4209 11.2208 82.9619 11.2304C82.5125 11.2399 82.13 11.2447 81.8144 11.2447C81.7188 11.2447 81.6471 11.216 81.5993 11.1586C81.5515 11.0917 81.5276 11.02 81.5276 10.9435V10.8861L82.9762 7.42936C83.0527 7.17118 83.1962 7.00385 83.4065 6.92735C83.6169 6.85085 83.8273 6.8126 84.0377 6.8126C85.7206 6.8126 87.3701 6.84129 88.9861 6.89866C90.6117 6.95603 92.2612 6.98472 93.9346 6.98472C94.0397 6.98472 94.1449 7.01819 94.2501 7.08512C94.3649 7.15206 94.4222 7.23334 94.4222 7.32896C94.4222 7.33852 94.4127 7.37199 94.3935 7.42936L89.8467 17.355C89.8467 17.3741 89.8706 17.3884 89.9184 17.398C89.9758 17.4076 90.0427 17.4171 90.1192 17.4267C90.2053 17.4362 90.2866 17.441 90.3631 17.441C90.4491 17.441 90.5208 17.441 90.5782 17.441C91.1806 17.441 91.7639 17.4267 92.3281 17.398C92.8923 17.3693 93.4612 17.355 94.035 17.355C94.1401 17.355 94.231 17.3789 94.3075 17.4267C94.384 17.4745 94.4222 17.5701 94.4222 17.7135C94.4222 17.7327 94.4127 17.7422 94.3935 17.7422L92.5863 21.5145C92.5002 21.6962 92.3472 21.8396 92.1273 21.9448C91.9074 22.05 91.6396 22.1313 91.3241 22.1887C91.0085 22.2365 90.6547 22.2699 90.2627 22.2891C89.8802 22.2986 89.4833 22.3034 89.0722 22.3034H83.9803Z" fill="#BAC4D1"/>
<path d="M102.325 17.6275C102.421 17.8187 102.555 18.0148 102.727 18.2156C102.909 18.4068 103.114 18.5837 103.344 18.7463C103.583 18.9088 103.841 19.0427 104.118 19.1479C104.396 19.2435 104.683 19.2913 104.979 19.2913C105.39 19.2913 105.777 19.1335 106.141 18.818C106.504 18.4929 106.82 18.0626 107.087 17.5271C107.365 16.982 107.58 16.3653 107.733 15.6768C107.886 14.9787 107.962 14.2568 107.962 13.5109C107.962 13.052 107.919 12.6169 107.833 12.2057C107.757 11.7945 107.632 11.4359 107.46 11.1299C107.288 10.824 107.063 10.5801 106.786 10.3984C106.518 10.2168 106.193 10.1259 105.811 10.1259C105.189 10.1259 104.62 10.3076 104.104 10.671C103.588 11.0343 103.153 11.4981 102.799 12.0623L102.325 17.6275ZM96.9897 23.0062C96.8558 23.0349 96.7506 23.0493 96.6741 23.0493C96.3681 23.0493 96.2151 22.8676 96.2151 22.5042C96.2151 22.4564 96.2151 22.4086 96.2151 22.3608C96.2247 22.313 96.2343 22.2604 96.2438 22.203L97.9077 1.90718C97.9077 1.87849 97.9077 1.8498 97.9077 1.82112C97.9172 1.79243 97.922 1.76852 97.922 1.7494C97.922 1.71115 97.9172 1.67768 97.9077 1.649C97.9077 1.62031 97.9077 1.5964 97.9077 1.57728C97.9077 1.49122 97.9363 1.42428 97.9937 1.37647C98.0607 1.3191 98.2232 1.25694 98.4814 1.19001L102.512 0.229005C102.617 0.209881 102.756 0.166851 102.928 0.0999151C103.1 0.0329795 103.267 -0.000488281 103.43 -0.000488281C103.554 -0.000488281 103.669 0.0281984 103.774 0.0855718C103.889 0.142945 103.946 0.252911 103.946 0.415469C103.946 0.434593 103.941 0.453718 103.932 0.472842C103.932 0.491967 103.932 0.511091 103.932 0.530215C103.922 0.578027 103.898 0.788396 103.86 1.16132C103.822 1.53425 103.779 1.98846 103.731 2.52394C103.683 3.04986 103.631 3.61882 103.573 4.2308C103.516 4.83322 103.463 5.40217 103.416 5.93766C103.368 6.46358 103.325 6.913 103.286 7.28593C103.248 7.65886 103.224 7.86923 103.215 7.91704C103.913 7.45805 104.635 7.07556 105.381 6.76957C106.126 6.45402 106.872 6.29624 107.618 6.29624C108.603 6.29624 109.454 6.50183 110.171 6.913C110.888 7.31462 111.481 7.85488 111.95 8.5338C112.418 9.20316 112.763 9.9777 112.983 10.8574C113.212 11.7371 113.327 12.6456 113.327 13.5827C113.327 14.3381 113.255 15.0983 113.112 15.8633C112.978 16.6187 112.777 17.3454 112.509 18.0434C112.251 18.7415 111.921 19.3965 111.52 20.0085C111.127 20.6205 110.673 21.1512 110.157 21.6006C109.65 22.05 109.081 22.4038 108.45 22.662C107.819 22.9202 107.135 23.0493 106.399 23.0493C105.51 23.0493 104.697 22.8532 103.961 22.4612C103.224 22.0691 102.541 21.5623 101.909 20.9408C101.89 21.1703 101.876 21.352 101.866 21.4858C101.857 21.6197 101.823 21.7249 101.766 21.8014C101.718 21.8683 101.642 21.9257 101.537 21.9735C101.431 22.0118 101.274 22.0548 101.063 22.1026C100.958 22.1313 100.772 22.1791 100.504 22.246C100.246 22.3034 99.9301 22.3703 99.5572 22.4468C99.1938 22.5329 98.7874 22.6237 98.338 22.7194C97.8981 22.815 97.4487 22.9106 96.9897 23.0062Z" fill="#BAC4D1"/>
<path d="M130.367 20.5248C130.338 20.8404 130.3 21.0603 130.252 21.1846C130.204 21.2994 130.099 21.3759 129.936 21.4141C129.124 21.6436 128.273 21.8779 127.383 22.1169C126.504 22.3464 125.648 22.6524 124.816 23.0349C124.787 23.0445 124.744 23.0493 124.687 23.0493C124.61 23.0493 124.562 23.0301 124.543 22.9919C124.534 22.9536 124.529 22.9106 124.529 22.8628C124.529 22.8437 124.529 22.8102 124.529 22.7624C124.538 22.7146 124.553 22.6237 124.572 22.4899C124.591 22.3656 124.615 22.1887 124.644 21.9592C124.682 21.7297 124.73 21.4237 124.787 21.0412C123.716 21.7392 122.765 22.246 121.933 22.5616C121.11 22.8867 120.379 23.0493 119.738 23.0493C118.141 23.0493 116.975 22.6668 116.238 21.9018C115.512 21.1273 115.148 19.975 115.148 18.4451C115.148 18.1677 115.153 17.8857 115.163 17.5988C115.172 17.3024 115.201 17.0012 115.249 16.6952C115.354 15.5668 115.445 14.601 115.521 13.7978C115.598 12.985 115.66 12.2965 115.708 11.7324C115.756 11.1682 115.794 10.7092 115.823 10.3554C115.861 9.99204 115.889 9.69083 115.909 9.45178C115.937 9.21272 115.956 9.01669 115.966 8.8637C115.985 8.70114 116.004 8.54336 116.023 8.39037C116.062 8.08438 116.095 7.86923 116.124 7.74492C116.162 7.62061 116.272 7.53933 116.454 7.50108C116.903 7.41502 117.329 7.33852 117.73 7.27159C118.141 7.19509 118.543 7.11859 118.935 7.04209C119.337 6.95603 119.743 6.86519 120.154 6.76957C120.565 6.67395 121 6.5592 121.459 6.42533C121.479 6.42533 121.498 6.42533 121.517 6.42533C121.536 6.41577 121.555 6.41099 121.574 6.41099C121.689 6.41099 121.746 6.44924 121.746 6.52573V6.55442C121.708 6.87954 121.675 7.18553 121.646 7.47239C121.617 7.75926 121.589 8.05569 121.56 8.36168C121.531 8.65811 121.498 8.97845 121.459 9.32269C121.431 9.66693 121.393 10.0685 121.345 10.5275C121.297 10.977 121.24 11.4981 121.173 12.091C121.106 12.6838 121.024 13.3723 120.929 14.1564C120.871 14.7301 120.814 15.3039 120.757 15.8776C120.699 16.4418 120.671 16.9677 120.671 17.4554C120.671 17.7231 120.69 17.9717 120.728 18.2012C120.766 18.4211 120.833 18.6124 120.929 18.775C121.034 18.9279 121.168 19.0475 121.33 19.1335C121.493 19.2196 121.703 19.2626 121.961 19.2626C122.162 19.2626 122.435 19.2196 122.779 19.1335C123.123 19.0379 123.467 18.8801 123.812 18.6602C124.156 18.4307 124.457 18.1343 124.715 17.7709C124.983 17.398 125.136 16.9294 125.174 16.3653C125.241 15.4186 125.299 14.6297 125.346 13.9986C125.404 13.3579 125.452 12.8225 125.49 12.3922C125.528 11.9523 125.562 11.5842 125.59 11.2877C125.619 10.9913 125.643 10.7092 125.662 10.4415C125.691 10.1642 125.715 9.87251 125.734 9.56652C125.753 9.25097 125.772 8.85892 125.791 8.39037C125.82 8.07481 125.853 7.85966 125.892 7.74492C125.939 7.62061 126.049 7.53933 126.221 7.50108C127.092 7.32896 127.981 7.15684 128.889 6.98472C129.798 6.80304 130.687 6.57354 131.557 6.29624C131.634 6.29624 131.677 6.31058 131.686 6.33927C131.705 6.35839 131.715 6.39186 131.715 6.43967L130.367 20.5248Z" fill="#BAC4D1"/>
<path d="M135.502 22.3034C135.31 22.3034 135.105 22.2938 134.885 22.2747C134.674 22.2556 134.478 22.2221 134.297 22.1743C134.125 22.1169 133.976 22.0452 133.852 21.9592C133.737 21.8731 133.68 21.7584 133.68 21.6149C133.68 21.6054 133.685 21.591 133.694 21.5719C133.704 21.5528 133.709 21.5337 133.709 21.5145L138.772 11.1299C138.37 11.1299 137.921 11.1395 137.424 11.1586C136.926 11.1682 136.424 11.1825 135.918 11.2017C135.42 11.2112 134.942 11.2208 134.483 11.2304C134.034 11.2399 133.651 11.2447 133.336 11.2447C133.24 11.2447 133.168 11.216 133.121 11.1586C133.073 11.0917 133.049 11.02 133.049 10.9435V10.8861L134.498 7.42936C134.574 7.17118 134.717 7.00385 134.928 6.92735C135.138 6.85085 135.349 6.8126 135.559 6.8126C137.242 6.8126 138.891 6.84129 140.507 6.89866C142.133 6.95603 143.782 6.98472 145.456 6.98472C145.561 6.98472 145.666 7.01819 145.771 7.08512C145.886 7.15206 145.944 7.23334 145.944 7.32896C145.944 7.33852 145.934 7.37199 145.915 7.42936L141.368 17.355C141.368 17.3741 141.392 17.3884 141.44 17.398C141.497 17.4076 141.564 17.4171 141.641 17.4267C141.727 17.4362 141.808 17.441 141.884 17.441C141.97 17.441 142.042 17.441 142.1 17.441C142.702 17.441 143.285 17.4267 143.849 17.398C144.414 17.3693 144.983 17.355 145.556 17.355C145.661 17.355 145.752 17.3789 145.829 17.4267C145.905 17.4745 145.944 17.5701 145.944 17.7135C145.944 17.7327 145.934 17.7422 145.915 17.7422L144.108 21.5145C144.022 21.6962 143.869 21.8396 143.649 21.9448C143.429 22.05 143.161 22.1313 142.845 22.1887C142.53 22.2365 142.176 22.2699 141.784 22.2891C141.401 22.2986 141.005 22.3034 140.593 22.3034H135.502Z" fill="#BAC4D1"/>
<path d="M149.558 22.3034C149.367 22.3034 149.161 22.2938 148.941 22.2747C148.731 22.2556 148.535 22.2221 148.353 22.1743C148.181 22.1169 148.033 22.0452 147.909 21.9592C147.794 21.8731 147.736 21.7584 147.736 21.6149C147.736 21.6054 147.741 21.591 147.751 21.5719C147.76 21.5528 147.765 21.5337 147.765 21.5145L152.828 11.1299C152.427 11.1299 151.977 11.1395 151.48 11.1586C150.983 11.1682 150.481 11.1825 149.974 11.2017C149.477 11.2112 148.999 11.2208 148.54 11.2304C148.09 11.2399 147.708 11.2447 147.392 11.2447C147.297 11.2447 147.225 11.216 147.177 11.1586C147.129 11.0917 147.105 11.02 147.105 10.9435V10.8861L148.554 7.42936C148.631 7.17118 148.774 7.00385 148.984 6.92735C149.195 6.85085 149.405 6.8126 149.615 6.8126C151.298 6.8126 152.948 6.84129 154.564 6.89866C156.189 6.95603 157.839 6.98472 159.512 6.98472C159.618 6.98472 159.723 7.01819 159.828 7.08512C159.943 7.15206 160 7.23334 160 7.32896C160 7.33852 159.99 7.37199 159.971 7.42936L155.424 17.355C155.424 17.3741 155.448 17.3884 155.496 17.398C155.554 17.4076 155.62 17.4171 155.697 17.4267C155.783 17.4362 155.864 17.441 155.941 17.441C156.027 17.441 156.099 17.441 156.156 17.441C156.758 17.441 157.342 17.4267 157.906 17.398C158.47 17.3693 159.039 17.355 159.613 17.355C159.718 17.355 159.809 17.3789 159.885 17.4267C159.962 17.4745 160 17.5701 160 17.7135C160 17.7327 159.99 17.7422 159.971 17.7422L158.164 21.5145C158.078 21.6962 157.925 21.8396 157.705 21.9448C157.485 22.05 157.217 22.1313 156.902 22.1887C156.586 22.2365 156.232 22.2699 155.84 22.2891C155.458 22.2986 155.061 22.3034 154.65 22.3034H149.558Z" fill="#BAC4D1"/>
</svg>
