<svg width="160" height="34" viewBox="0 0 160 34" fill="none" xmlns="http://www.w3.org/2000/svg">
<path d="M8.34996 3.69319C8.34996 3.93877 8.2681 4.12979 8.10437 4.26622C7.94065 4.37537 7.79057 4.52545 7.65413 4.71647C7.38126 4.96205 7.13567 5.22128 6.91737 5.49416C6.72636 5.73975 6.49441 5.98533 6.22154 6.23092C6.11239 6.34007 5.96231 6.49015 5.7713 6.68116C5.58028 6.84489 5.37563 7.02226 5.15733 7.21327C4.96632 7.37699 4.76166 7.52707 4.54336 7.66351C4.35235 7.79995 4.18862 7.86817 4.05219 7.86817C3.83389 7.86817 3.54737 7.79995 3.19263 7.66351C2.86518 7.49979 2.57866 7.39064 2.33308 7.33606C2.14207 7.30877 1.9647 7.29513 1.80097 7.29513C1.66453 7.26784 1.5281 7.18598 1.39166 7.04954C0.900486 6.94039 0.58668 6.77667 0.450243 6.55837C0.313806 6.31278 0.163725 6.0672 0 5.82161C0 5.71246 0.0409312 5.64424 0.122794 5.61695C0.204656 5.58966 0.272875 5.53509 0.327449 5.45323C0.600324 5.09849 0.832267 4.81197 1.02328 4.59367C1.21429 4.34809 1.43259 4.1025 1.67818 3.85691C2.14207 3.4476 2.57866 3.02464 2.98798 2.58804C3.42458 2.15145 3.87482 1.74213 4.33871 1.36011C4.557 1.33282 4.72073 1.25096 4.82988 1.11452C4.93903 0.978085 5.10275 0.909866 5.32105 0.909866C5.53935 0.909866 5.71672 0.978085 5.85316 1.11452C6.01688 1.25096 6.15332 1.41468 6.26247 1.6057C6.39891 1.76942 6.5217 1.94679 6.63085 2.1378C6.76729 2.30153 6.91737 2.42432 7.08109 2.50618C7.27211 2.64262 7.53134 2.81999 7.85879 3.03829C8.18624 3.25659 8.34996 3.47489 8.34996 3.69319ZM2.74239 11.3064C2.9334 11.4155 3.06984 11.5656 3.1517 11.7566C3.26085 11.9204 3.41093 12.0431 3.60194 12.125C3.76567 12.2069 3.94304 12.2478 4.13405 12.2478C4.32506 12.2478 4.48879 12.2751 4.62522 12.3297C4.73437 12.3842 4.81624 12.4525 4.87081 12.5343C4.92539 12.6162 4.97996 12.698 5.03454 12.7799C5.19826 12.9163 5.44385 13.0391 5.7713 13.1483C6.12603 13.2574 6.35798 13.3802 6.46713 13.5167C6.65814 13.7623 6.79458 14.0761 6.87644 14.4581C6.98559 14.8401 7.06745 15.2494 7.12203 15.686C7.1766 16.0953 7.21753 16.5183 7.24482 16.9549C7.27211 17.3642 7.31304 17.7189 7.36761 18.0191C7.42219 18.6467 7.49041 19.2743 7.57227 19.9019C7.65413 20.5023 7.69506 21.1162 7.69506 21.7438C7.69506 22.3715 7.66778 23.0127 7.6132 23.6676C7.55863 24.3225 7.53134 24.9638 7.53134 25.5914C7.53134 25.9188 7.51769 26.3281 7.49041 26.8193C7.49041 27.3105 7.38126 27.6925 7.16296 27.9654C7.13567 28.0745 7.12203 28.2655 7.12203 28.5384V29.8482C7.12203 30.0119 7.13567 30.1757 7.16296 30.3394C7.19024 30.5031 7.20389 30.6805 7.20389 30.8715C7.20389 31.1717 7.12203 31.39 6.9583 31.5264C6.87644 31.4991 6.78093 31.4855 6.67178 31.4855C6.58992 31.4855 6.50806 31.4855 6.4262 31.4855C6.12603 31.4855 5.90773 31.54 5.7713 31.6492C5.47113 31.6219 5.18462 31.5946 4.91174 31.5673C4.63887 31.54 4.35235 31.5264 4.05219 31.5264C3.5883 31.5264 3.08348 31.5946 2.53773 31.731C2.42858 31.4582 2.37401 31.1717 2.37401 30.8715C2.4013 30.5713 2.34672 30.2985 2.21028 30.0529C2.183 29.971 2.15571 29.9028 2.12842 29.8482C2.12842 29.7664 2.12842 29.6845 2.12842 29.6026C2.21028 29.2752 2.25122 29.0569 2.25122 28.9477C2.25122 28.8113 2.25122 28.6749 2.25122 28.5384C2.25122 28.1564 2.23757 27.7744 2.21028 27.3923C2.183 26.983 2.19664 26.5874 2.25122 26.2053C2.25122 26.0689 2.26486 25.9461 2.29215 25.837C2.34672 25.7278 2.37401 25.605 2.37401 25.4686C2.37401 25.3321 2.34672 25.2366 2.29215 25.1821C2.23757 25.1275 2.21028 25.0593 2.21028 24.9774C2.21028 24.8955 2.21028 24.7591 2.21028 24.5681C2.23757 24.3771 2.2785 24.2543 2.33308 24.1997C2.33308 23.9814 2.33308 23.7768 2.33308 23.5857C2.36036 23.3674 2.37401 23.1628 2.37401 22.9718C2.37401 22.5352 2.36036 22.0986 2.33308 21.662C2.30579 21.2254 2.29215 20.8024 2.29215 20.3931C2.29215 20.2021 2.2785 20.0793 2.25122 20.0247C2.22393 19.9702 2.19664 19.9292 2.16935 19.9019C2.14207 19.8746 2.10113 19.861 2.04656 19.861C1.99198 19.8337 1.95105 19.7791 1.92377 19.6973C2.03292 18.4966 1.99198 17.296 1.80097 16.0953C1.60996 14.8947 1.51445 13.6804 1.51445 12.4525C1.51445 12.2614 1.54174 12.125 1.59632 12.0431C1.65089 11.934 1.71911 11.8521 1.80097 11.7976C1.88283 11.743 1.95105 11.6884 2.00563 11.6338C2.08749 11.552 2.14207 11.4428 2.16935 11.3064C2.38765 11.361 2.57866 11.361 2.74239 11.3064Z" fill="#BAC4D1"/>
<path d="M25.9504 0.991729C26.387 0.937154 26.7144 0.978085 26.9327 1.11452C27.1783 1.22367 27.4239 1.29189 27.6695 1.31918C27.8059 1.34647 27.9424 1.36011 28.0788 1.36011C28.2425 1.33282 28.4062 1.31918 28.57 1.31918C28.9247 1.31918 29.1976 1.36011 29.3886 1.44197C29.6069 1.52383 29.8252 1.7012 30.0435 1.97408C30.0981 2.02865 30.1663 2.11051 30.2481 2.21966C30.3573 2.30153 30.4119 2.38339 30.4119 2.46525C30.4119 2.68355 30.3573 2.87456 30.2481 3.03829C30.139 3.20201 30.0844 3.43396 30.0844 3.73412C30.0844 4.198 30.139 4.66189 30.2481 5.12578C30.3573 5.56238 30.4255 6.01262 30.4528 6.47651C30.5892 8.16833 30.6575 9.8738 30.6575 11.5929C30.6847 13.2847 30.6984 14.9629 30.6984 16.6274C30.6984 16.8457 30.6847 17.0504 30.6575 17.2414C30.6575 17.4051 30.6029 17.5552 30.4937 17.6917V18.2238C30.4664 18.9332 30.4801 19.6563 30.5347 20.3931C30.5892 21.1026 30.6165 21.8121 30.6165 22.5215C30.6165 23.1491 30.5756 23.7768 30.4937 24.4044C30.4392 25.032 30.4119 25.6732 30.4119 26.3281C30.4119 26.9285 30.4528 27.5151 30.5347 28.0882C30.6165 28.6612 30.6575 29.2479 30.6575 29.8482C30.521 30.0938 30.4392 30.2848 30.4119 30.4212C30.3846 30.5577 30.33 30.6805 30.2481 30.7896C30.1663 30.8442 30.0708 30.8578 29.9616 30.8306C29.8798 30.8033 29.8115 30.8306 29.757 30.9124C29.6205 31.0761 29.525 31.2672 29.4705 31.4855C29.4159 31.7038 29.2794 31.8811 29.0611 32.0176C29.0066 32.3996 28.8565 32.6861 28.6109 32.8771C28.3926 33.0954 28.2289 33.3683 28.1197 33.6957C27.7923 33.723 27.5603 33.7094 27.4239 33.6548C27.3147 33.6002 27.1919 33.5457 27.0555 33.4911C27.0282 33.0272 27.0282 32.6861 27.0555 32.4678C27.1101 32.2768 27.1374 32.0721 27.1374 31.8538C27.1374 31.581 27.0692 31.3763 26.9327 31.2399C26.7963 31.1034 26.7008 30.9261 26.6462 30.7078C26.346 30.5168 26.1414 30.394 26.0322 30.3394C25.9231 30.2575 25.8276 30.162 25.7457 30.0529C25.582 29.8346 25.4456 29.6026 25.3364 29.357C25.2273 29.1115 25.1045 28.8795 24.968 28.6612C24.586 28.0336 24.1903 27.3923 23.781 26.7374C23.399 26.0825 22.976 25.4413 22.5122 24.8137C22.4303 24.6772 22.3348 24.5544 22.2256 24.4453C22.1165 24.3361 22.021 24.2134 21.9391 24.0769C21.4752 23.3402 21.0386 22.5898 20.6293 21.8257C20.22 21.0617 19.7425 20.3385 19.1967 19.6563C18.9784 19.3835 18.8147 19.0833 18.7056 18.7559C18.5964 18.4011 18.4327 18.101 18.2144 17.8554C18.1871 17.9918 18.1734 18.1419 18.1734 18.3056C18.1734 18.4693 18.1734 18.6194 18.1734 18.7559C18.1734 19.6836 18.1871 20.6114 18.2144 21.5392C18.269 22.4397 18.2962 23.3538 18.2962 24.2816C18.2962 24.4726 18.269 24.65 18.2144 24.8137C18.1871 24.9501 18.1734 25.1138 18.1734 25.3049C18.1734 25.5777 18.1871 25.837 18.2144 26.0825C18.2417 26.3281 18.2553 26.5737 18.2553 26.8193C18.2553 27.1195 18.2417 27.406 18.2144 27.6789C18.2144 27.9517 18.2007 28.2246 18.1734 28.4975C18.1189 28.8522 18.0507 29.1933 17.9688 29.5208C17.8869 29.8209 17.846 30.1347 17.846 30.4622C17.846 30.6532 17.8596 30.8306 17.8869 30.9943C17.9415 31.158 17.9688 31.3081 17.9688 31.4445C17.7778 31.7447 17.5322 31.8948 17.232 31.8948C16.9592 31.8948 16.7272 32.0039 16.5362 32.2222C16.3725 32.1949 16.236 32.2086 16.1269 32.2632C16.045 32.3177 15.9632 32.345 15.8813 32.345C15.7721 32.345 15.6766 32.3314 15.5948 32.3041C15.5402 32.2768 15.472 32.2632 15.3901 32.2632C15.2537 32.2632 15.1173 32.3314 14.9808 32.4678C14.8444 32.6042 14.7079 32.6725 14.5715 32.6725C14.4896 32.6725 14.3396 32.6179 14.1213 32.5087C13.9302 32.3996 13.7119 32.2632 13.4664 32.0994C13.2481 31.963 13.0434 31.8129 12.8524 31.6492C12.6614 31.5127 12.5659 31.4036 12.5659 31.3217C12.5386 31.1853 12.5249 30.9943 12.5249 30.7487C12.5249 30.4212 12.5386 30.1074 12.5659 29.8073C12.6204 29.4798 12.675 29.1524 12.7296 28.8249C12.8115 27.8972 12.8524 26.983 12.8524 26.0825C12.8524 25.1548 12.8524 24.227 12.8524 23.2992C12.8524 22.9172 12.8524 22.5352 12.8524 22.1532C12.8797 21.7711 12.8933 21.3891 12.8933 21.0071C12.8933 20.1066 12.8524 19.2061 12.7705 18.3056C12.716 17.3778 12.6887 16.4637 12.6887 15.5632C12.6887 14.9356 12.716 14.3217 12.7705 13.7213C12.8251 13.0937 12.8524 12.4797 12.8524 11.8794C12.8524 11.4155 12.8387 10.9653 12.8115 10.5287C12.7842 10.0921 12.7705 9.64185 12.7705 9.17797C12.7432 8.8778 12.7432 8.564 12.7705 8.23655C12.7978 7.88181 12.8115 7.55436 12.8115 7.2542C12.8115 6.89946 12.7569 6.57201 12.6477 6.27185C12.5659 5.9444 12.5249 5.64424 12.5249 5.37137C12.5249 5.20764 12.5522 5.05756 12.6068 4.92112C12.6887 4.7574 12.7296 4.59367 12.7296 4.42995C12.7296 4.21165 12.6887 3.99335 12.6068 3.77505C12.5522 3.55675 12.5249 3.33845 12.5249 3.12015C12.5249 2.90185 12.5522 2.69719 12.6068 2.50618C12.6614 2.31517 12.6887 2.11051 12.6887 1.89221C13.0707 1.7012 13.4118 1.6057 13.7119 1.6057C14.0121 1.6057 14.2304 1.71485 14.3668 1.93315C14.3668 2.42432 14.3941 2.80634 14.4487 3.07922C14.5033 3.32481 14.5442 3.58404 14.5715 3.85691C14.5715 4.02064 14.5579 4.21165 14.5306 4.42995C14.5306 4.64825 14.5442 4.86655 14.5715 5.08485C14.5988 5.27586 14.6534 5.43958 14.7352 5.57602C14.8444 5.71246 15.0217 5.78068 15.2673 5.78068C15.3219 5.91711 15.3901 6.03991 15.472 6.14906C15.5539 6.25821 15.6084 6.39464 15.6357 6.55837C15.7994 6.44922 15.8949 6.29914 15.9222 6.10813C15.9495 5.91711 15.9495 5.73975 15.9222 5.57602C16.0587 5.6306 16.1815 5.65788 16.2906 5.65788C16.3998 5.6306 16.5089 5.64424 16.6181 5.69881C16.6726 6.08084 16.7409 6.42193 16.8227 6.72209C16.9046 6.99497 16.9319 7.32242 16.9046 7.70444C17.4503 8.11375 17.9142 8.70043 18.2962 9.46448C18.7056 10.2012 19.0876 10.8698 19.4423 11.4701C19.6333 11.7703 19.8516 12.0568 20.0972 12.3297C20.3701 12.5753 20.5747 12.8754 20.7112 13.2302C20.9295 13.3666 21.1068 13.544 21.2433 13.7623C21.3797 13.9806 21.5025 14.1989 21.6117 14.4172C22.1574 15.3722 22.7577 16.3 23.4126 17.2005C24.0675 18.101 24.7497 18.9878 25.4592 19.861C25.4865 19.67 25.5001 19.4926 25.5001 19.3289C25.5001 19.1379 25.5001 18.9469 25.5001 18.7559L25.4592 15.0721C25.4592 14.8538 25.4456 14.6491 25.4183 14.4581C25.4183 14.2671 25.4046 14.0624 25.3773 13.8441C25.3228 13.1346 25.3091 12.4388 25.3364 11.7566C25.3637 11.0744 25.3637 10.3786 25.3364 9.66914C25.2818 8.93238 25.2409 8.18197 25.2136 7.41792C25.2136 6.65388 25.1863 5.88983 25.1317 5.12578C25.1045 4.66189 25.0772 4.198 25.0499 3.73412C25.0226 3.27023 25.009 2.80634 25.009 2.34246C25.009 1.76942 25.0635 1.25096 25.1727 0.787073C25.2273 0.732498 25.2818 0.691567 25.3364 0.664279C25.4183 0.609704 25.5138 0.582417 25.6229 0.582417C25.7866 0.582417 25.8958 0.718854 25.9504 0.991729Z" fill="#BAC4D1"/>
<path d="M35.8557 32.0176C35.7466 31.9084 35.692 31.7583 35.692 31.5673C35.692 31.4309 35.692 31.3217 35.692 31.2399C35.7193 31.1307 35.7466 31.0079 35.7739 30.8715C35.9103 30.2439 35.9785 29.6163 35.9785 28.9887C35.9785 28.3338 36.0058 27.6925 36.0604 27.0649C36.0877 26.6829 36.1013 26.3008 36.1013 25.9188C36.1286 25.5368 36.1422 25.1548 36.1422 24.7727C36.1422 22.5079 36.074 20.2567 35.9376 18.0191C35.8011 15.7542 35.7329 13.4757 35.7329 11.1836C35.7329 9.60092 35.7602 8.01825 35.8148 6.43558C35.8694 4.82562 35.9103 3.21566 35.9376 1.6057C36.1832 1.46926 36.4833 1.41468 36.8381 1.44197C37.1928 1.46926 37.4793 1.34647 37.6976 1.07359C37.8341 1.0463 37.9705 1.0463 38.1069 1.07359C38.2434 1.07359 38.3798 1.07359 38.5162 1.07359C38.8164 1.07359 39.1029 0.978085 39.3758 0.787073C39.6487 0.59606 39.9488 0.432336 40.2763 0.295898C40.44 0.350473 40.5492 0.377761 40.6037 0.377761C40.6856 0.350473 40.7675 0.33683 40.8493 0.33683C40.9312 0.33683 41.1086 0.432336 41.3814 0.623348C41.6543 0.81436 41.9545 1.03266 42.2819 1.27825C42.6094 1.52383 42.9095 1.75578 43.1824 1.97408C43.4826 2.19238 43.6736 2.32881 43.7554 2.38339C44.4376 2.90185 45.0379 3.47489 45.5564 4.1025C46.1022 4.70282 46.6343 5.31679 47.1527 5.9444C47.6439 6.57201 48.176 7.21327 48.749 7.86817C49.3221 8.49578 49.8815 9.08246 50.4272 9.62821C50.6182 9.84651 50.8092 10.0375 51.0003 10.2012C51.2186 10.365 51.4232 10.556 51.6142 10.7743C51.6961 10.8834 51.7643 11.0062 51.8189 11.1427C51.9007 11.2518 51.9826 11.3746 52.0645 11.511C52.2282 11.7021 52.4192 11.8658 52.6375 12.0022C52.8558 12.1387 53.0605 12.3024 53.2515 12.4934C53.3879 12.6025 53.5926 12.8208 53.8654 13.1483C54.1383 13.4757 54.2747 13.7213 54.2747 13.8851C54.2747 13.9942 54.2475 14.0897 54.1929 14.1716C54.1383 14.2534 54.0837 14.3489 54.0292 14.4581C54.0019 14.54 53.9882 14.6627 53.9882 14.8265C53.9882 14.9902 53.9746 15.0993 53.9473 15.1539C53.6744 15.3722 53.5243 15.5087 53.4971 15.5632C53.4698 15.6178 53.4288 15.6724 53.3743 15.727C53.2924 15.8361 53.1833 15.9316 53.0468 16.0135C52.9377 16.068 52.8558 16.1636 52.8012 16.3C52.7467 16.3819 52.7194 16.4637 52.7194 16.5456C52.7467 16.6274 52.733 16.7229 52.6784 16.8321C52.542 17.1323 52.3237 17.4188 52.0235 17.6917C51.7234 17.9645 51.4641 18.2647 51.2458 18.5921C50.9457 19.0833 50.6455 19.5745 50.3454 20.0657C50.0452 20.5568 49.7041 21.0344 49.3221 21.4983C49.1584 21.7166 48.981 21.9349 48.79 22.1532C48.6262 22.3442 48.4625 22.5488 48.2988 22.7671C48.1624 22.9308 48.0396 23.1082 47.9304 23.2992C47.8213 23.4629 47.6985 23.654 47.562 23.8723C47.2619 24.2543 46.9754 24.6363 46.7025 25.0183C46.4296 25.3731 46.1431 25.7415 45.8429 26.1235C45.5155 26.5874 45.1607 27.0512 44.7787 27.5151C44.3967 27.9517 44.0556 28.402 43.7554 28.8659C43.4553 29.357 43.1415 29.8073 42.814 30.2166C42.4866 30.6259 42.1318 31.0216 41.7498 31.4036C41.6407 31.4855 41.5042 31.6083 41.3405 31.772C41.1768 31.9357 41.013 32.0176 40.8493 32.0176C40.7402 32.0176 40.6447 31.9766 40.5628 31.8948C40.5082 31.8129 40.4127 31.772 40.2763 31.772C40.249 31.772 40.1671 31.7856 40.0307 31.8129C39.8943 31.8402 39.7305 31.8675 39.5395 31.8948L38.8028 31.9766C38.3662 32.1949 38.0524 32.2904 37.8613 32.2632C37.6703 32.2632 37.4793 32.2768 37.2883 32.3041C37.1792 32.3314 37.0837 32.3723 37.0018 32.4269C36.9472 32.4815 36.879 32.5087 36.7971 32.5087C36.6061 32.5087 36.456 32.4132 36.3469 32.2222C36.2377 32.0585 36.074 31.9903 35.8557 32.0176ZM48.1351 14.3353C48.1351 14.1989 47.9986 14.0078 47.7258 13.7623C47.4802 13.5167 47.2892 13.3393 47.1527 13.2302C46.9617 13.0664 46.7298 12.9163 46.4569 12.7799C46.2113 12.6162 46.0066 12.4388 45.8429 12.2478C45.7065 12.0841 45.5701 11.9204 45.4336 11.7566C45.3245 11.5656 45.2017 11.3882 45.0652 11.2245C44.5741 10.6788 44.0692 10.133 43.5508 9.58728C43.0596 9.04153 42.623 8.4412 42.241 7.7863C41.9954 7.62258 41.7635 7.43157 41.5452 7.21327C41.3269 6.99497 41.0676 6.8176 40.7675 6.68116C40.7129 6.84489 40.6856 7.02226 40.6856 7.21327C40.7129 7.37699 40.7265 7.54072 40.7265 7.70444C40.7265 8.33205 40.6992 8.94602 40.6447 9.54635C40.5901 10.1467 40.5628 10.747 40.5628 11.3473C40.5628 12.8208 40.5901 14.2807 40.6447 15.727C40.7265 17.1459 40.7675 18.5785 40.7675 20.0247C40.7675 20.5705 40.7675 21.1162 40.7675 21.662C40.7947 22.2077 40.8493 22.7535 40.9312 23.2992C40.8766 23.4629 40.8493 23.613 40.8493 23.7495C40.8493 23.8859 40.8766 24.0633 40.9312 24.2816C41.1495 24.1451 41.3269 23.9814 41.4633 23.7904C41.627 23.5721 41.7771 23.3674 41.9135 23.1764C42.3774 22.5761 42.8277 21.9758 43.2643 21.3755C43.7281 20.7478 44.192 20.1202 44.6559 19.4926C44.9561 19.0833 45.2562 18.6876 45.5564 18.3056C45.8839 17.8963 46.1977 17.4734 46.4978 17.0368C46.5797 16.9276 46.7025 16.7366 46.8662 16.4637C47.0572 16.1908 47.2346 15.918 47.3983 15.6451C47.5893 15.3449 47.753 15.0721 47.8895 14.8265C48.0532 14.5809 48.1351 14.4172 48.1351 14.3353Z" fill="#BAC4D1"/>
<path d="M63.034 3.69319C63.034 3.93877 62.9522 4.12979 62.7884 4.26622C62.6247 4.37537 62.4746 4.52545 62.3382 4.71647C62.0653 4.96205 61.8197 5.22128 61.6014 5.49416C61.4104 5.73975 61.1785 5.98533 60.9056 6.23092C60.7965 6.34007 60.6464 6.49015 60.4554 6.68116C60.2643 6.84489 60.0597 7.02226 59.8414 7.21327C59.6504 7.37699 59.4457 7.52707 59.2274 7.66351C59.0364 7.79995 58.8727 7.86817 58.7362 7.86817C58.5179 7.86817 58.2314 7.79995 57.8767 7.66351C57.5492 7.49979 57.2627 7.39064 57.0171 7.33606C56.8261 7.30877 56.6488 7.29513 56.485 7.29513C56.3486 7.26784 56.2122 7.18598 56.0757 7.04954C55.5845 6.94039 55.2707 6.77667 55.1343 6.55837C54.9979 6.31278 54.8478 6.0672 54.6841 5.82161C54.6841 5.71246 54.725 5.64424 54.8069 5.61695C54.8887 5.58966 54.9569 5.53509 55.0115 5.45323C55.2844 5.09849 55.5163 4.81197 55.7073 4.59367C55.8984 4.34809 56.1167 4.1025 56.3622 3.85691C56.8261 3.4476 57.2627 3.02464 57.672 2.58804C58.1086 2.15145 58.5589 1.74213 59.0228 1.36011C59.2411 1.33282 59.4048 1.25096 59.5139 1.11452C59.6231 0.978085 59.7868 0.909866 60.0051 0.909866C60.2234 0.909866 60.4008 0.978085 60.5372 1.11452C60.7009 1.25096 60.8374 1.41468 60.9465 1.6057C61.083 1.76942 61.2058 1.94679 61.3149 2.1378C61.4514 2.30153 61.6014 2.42432 61.7652 2.50618C61.9562 2.64262 62.2154 2.81999 62.5429 3.03829C62.8703 3.25659 63.034 3.47489 63.034 3.69319ZM57.4265 11.3064C57.6175 11.4155 57.7539 11.5656 57.8358 11.7566C57.9449 11.9204 58.095 12.0431 58.286 12.125C58.4497 12.2069 58.6271 12.2478 58.8181 12.2478C59.0091 12.2478 59.1728 12.2751 59.3093 12.3297C59.4184 12.3842 59.5003 12.4525 59.5549 12.5343C59.6094 12.6162 59.664 12.698 59.7186 12.7799C59.8823 12.9163 60.1279 13.0391 60.4554 13.1483C60.8101 13.2574 61.042 13.3802 61.1512 13.5167C61.3422 13.7623 61.4786 14.0761 61.5605 14.4581C61.6697 14.8401 61.7515 15.2494 61.8061 15.686C61.8607 16.0953 61.9016 16.5183 61.9289 16.9549C61.9562 17.3642 61.9971 17.7189 62.0517 18.0191C62.1063 18.6467 62.1745 19.2743 62.2563 19.9019C62.3382 20.5023 62.3791 21.1162 62.3791 21.7438C62.3791 22.3715 62.3518 23.0127 62.2973 23.6676C62.2427 24.3225 62.2154 24.9638 62.2154 25.5914C62.2154 25.9188 62.2018 26.3281 62.1745 26.8193C62.1745 27.3105 62.0653 27.6925 61.847 27.9654C61.8197 28.0745 61.8061 28.2655 61.8061 28.5384V29.8482C61.8061 30.0119 61.8197 30.1757 61.847 30.3394C61.8743 30.5031 61.888 30.6805 61.888 30.8715C61.888 31.1717 61.8061 31.39 61.6424 31.5264C61.5605 31.4991 61.465 31.4855 61.3558 31.4855C61.274 31.4855 61.1921 31.4855 61.1103 31.4855C60.8101 31.4855 60.5918 31.54 60.4554 31.6492C60.1552 31.6219 59.8687 31.5946 59.5958 31.5673C59.3229 31.54 59.0364 31.5264 58.7362 31.5264C58.2724 31.5264 57.7675 31.5946 57.2218 31.731C57.1126 31.4582 57.0581 31.1717 57.0581 30.8715C57.0854 30.5713 57.0308 30.2985 56.8943 30.0529C56.8671 29.971 56.8398 29.9028 56.8125 29.8482C56.8125 29.7664 56.8125 29.6845 56.8125 29.6026C56.8943 29.2752 56.9353 29.0569 56.9353 28.9477C56.9353 28.8113 56.9353 28.6749 56.9353 28.5384C56.9353 28.1564 56.9216 27.7744 56.8943 27.3923C56.8671 26.983 56.8807 26.5874 56.9353 26.2053C56.9353 26.0689 56.9489 25.9461 56.9762 25.837C57.0308 25.7278 57.0581 25.605 57.0581 25.4686C57.0581 25.3321 57.0308 25.2366 56.9762 25.1821C56.9216 25.1275 56.8943 25.0593 56.8943 24.9774C56.8943 24.8955 56.8943 24.7591 56.8943 24.5681C56.9216 24.3771 56.9626 24.2543 57.0171 24.1997C57.0171 23.9814 57.0171 23.7768 57.0171 23.5857C57.0444 23.3674 57.0581 23.1628 57.0581 22.9718C57.0581 22.5352 57.0444 22.0986 57.0171 21.662C56.9899 21.2254 56.9762 20.8024 56.9762 20.3931C56.9762 20.2021 56.9626 20.0793 56.9353 20.0247C56.908 19.9702 56.8807 19.9292 56.8534 19.9019C56.8261 19.8746 56.7852 19.861 56.7306 19.861C56.676 19.8337 56.6351 19.7791 56.6078 19.6973C56.717 18.4966 56.676 17.296 56.485 16.0953C56.294 14.8947 56.1985 13.6804 56.1985 12.4525C56.1985 12.2614 56.2258 12.125 56.2804 12.0431C56.335 11.934 56.4032 11.8521 56.485 11.7976C56.5669 11.743 56.6351 11.6884 56.6897 11.6338C56.7716 11.552 56.8261 11.4428 56.8534 11.3064C57.0717 11.361 57.2627 11.361 57.4265 11.3064Z" fill="#BAC4D1"/>
<path d="M73.2259 20.8024C73.2805 20.9389 73.4715 21.2254 73.7989 21.662C74.1537 22.0986 74.5493 22.5761 74.9859 23.0946C75.4225 23.613 75.8318 24.1178 76.2139 24.609C76.6232 25.0729 76.9097 25.414 77.0734 25.6323C77.3736 26.0143 77.6601 26.3964 77.933 26.7784C78.2331 27.1331 78.506 27.5151 78.7516 27.9244L79.4884 29.1524C79.7067 29.4253 79.8977 29.6572 80.0614 29.8482C80.2524 30.0392 80.4025 30.2985 80.5116 30.6259C80.5662 30.8442 80.5935 30.9943 80.5935 31.0761C80.5935 31.2672 80.5253 31.4036 80.3888 31.4855C80.1705 31.4855 80.0478 31.5127 80.0205 31.5673C80.0205 31.6492 79.9659 31.7174 79.8567 31.772C79.7476 31.8266 79.5702 31.8538 79.3246 31.8538C79.1063 31.8811 78.929 31.8948 78.7925 31.8948C78.5469 31.8948 78.2331 31.8811 77.8511 31.8538C77.4964 31.8538 77.2099 31.8948 76.9916 31.9766C76.937 32.0039 76.8551 32.0449 76.746 32.0994C76.6368 32.154 76.555 32.1813 76.5004 32.1813C76.2821 32.1813 76.1184 32.1404 76.0092 32.0585C75.9273 32.0039 75.8046 31.963 75.6408 31.9357C75.4225 31.6901 75.2315 31.4445 75.0678 31.1989C74.9314 30.9261 74.7676 30.6532 74.5766 30.3803C74.3856 30.1893 74.1946 30.0256 74.0036 29.8891C73.8126 29.7254 73.6488 29.5481 73.5124 29.357C73.1031 28.7567 72.6801 28.17 72.2435 27.597C71.8069 27.024 71.3567 26.4646 70.8928 25.9188C70.6745 25.6187 70.4426 25.3458 70.197 25.1002C69.9514 24.8546 69.7195 24.5817 69.5012 24.2816C69.2829 24.0087 69.0782 23.7222 68.8872 23.422C68.6962 23.0946 68.5052 22.7808 68.3141 22.4806C68.1504 22.235 67.9321 21.9212 67.6592 21.5392C67.3864 21.1299 67.0862 20.7342 66.7588 20.3522C66.4313 19.9429 66.1039 19.5608 65.7764 19.2061C65.449 18.8514 65.1761 18.5785 64.9578 18.3875C64.9305 18.2238 64.8623 18.101 64.7531 18.0191C64.644 17.91 64.5212 17.8144 64.3848 17.7326C64.3302 17.5961 64.2756 17.4734 64.221 17.3642C64.1392 17.2278 64.0982 17.0913 64.0982 16.9549C64.0982 16.7639 64.1392 16.5865 64.221 16.4228C64.2756 16.3136 64.3165 16.2181 64.3438 16.1363C64.3438 16.0271 64.3711 15.918 64.4257 15.8088C64.5621 15.5087 64.7395 15.2221 64.9578 14.9493C65.2034 14.6491 65.3944 14.3353 65.5308 14.0078C65.5854 13.926 65.6127 13.8441 65.6127 13.7623C65.6127 13.6531 65.64 13.5576 65.6945 13.4757C65.7491 13.2574 65.8583 13.0801 66.022 12.9436C66.213 12.7799 66.3631 12.6025 66.4722 12.4115C66.6087 12.1932 66.7315 11.9749 66.8406 11.7566C66.9771 11.511 67.1135 11.2518 67.2499 10.9789C67.6592 10.2968 68.0822 9.64185 68.5188 9.01424C68.9827 8.35934 69.4466 7.70444 69.9105 7.04954C70.2652 6.50379 70.6063 5.98533 70.9337 5.49416C71.2885 4.9757 71.6432 4.45724 71.998 3.93877C72.189 3.69319 72.3936 3.40667 72.6119 3.07922C72.8302 2.75177 73.0622 2.42432 73.3077 2.09687C73.5806 1.76942 73.8535 1.46926 74.1264 1.19638C74.3992 0.92351 74.6721 0.70521 74.945 0.541486C75.3543 0.514198 75.6272 0.609704 75.7636 0.828004C75.9001 1.01902 76.1047 1.11452 76.3776 1.11452C76.7323 1.19638 76.9643 1.30553 77.0734 1.44197C77.1826 1.57841 77.3054 1.71485 77.4418 1.85128C77.8238 1.85128 78.124 1.9195 78.3423 2.05594C78.5879 2.19238 78.8198 2.39703 79.0381 2.66991C78.9563 2.97007 78.8335 3.24294 78.6697 3.48853C78.506 3.70683 78.3559 3.93877 78.2195 4.18436C78.0012 4.29351 77.8375 4.44359 77.7283 4.6346C77.6465 4.82562 77.51 4.9757 77.319 5.08485C77.0461 5.54873 76.7596 5.99898 76.4594 6.43558C76.1593 6.84489 75.8591 7.2542 75.559 7.66351C75.3952 7.9091 75.2179 8.1274 75.0269 8.31841C74.8631 8.50942 74.7131 8.71408 74.5766 8.93238C74.522 9.01424 74.4675 9.10975 74.4129 9.2189C74.3856 9.30076 74.3447 9.38262 74.2901 9.46448C73.9626 9.98295 73.6079 10.4741 73.2259 10.938C72.8439 11.3746 72.4891 11.8658 72.1617 12.4115C72.0525 12.6025 71.957 12.8072 71.8752 13.0255C71.8206 13.2165 71.7387 13.4075 71.6296 13.5985C71.5204 13.7623 71.3567 13.9806 71.1384 14.2534C70.9474 14.5263 70.7564 14.8265 70.5654 15.1539C70.3744 15.4541 70.197 15.7542 70.0333 16.0544C69.8968 16.3273 69.8286 16.5592 69.8286 16.7502C69.8559 16.8867 70.0196 17.1595 70.3198 17.5689C70.6472 17.9509 71.002 18.3738 71.384 18.8377C71.7933 19.2743 72.1753 19.6973 72.5301 20.1066C72.8848 20.4886 73.1167 20.7206 73.2259 20.8024ZM75.9273 13.3529C76.1184 13.7623 76.323 14.117 76.5413 14.4172C76.6232 14.5263 76.7187 14.6218 76.8278 14.7037C76.937 14.7855 77.0188 14.8947 77.0734 15.0311C77.128 15.0857 77.1826 15.2085 77.2371 15.3995C77.2917 15.5632 77.3463 15.686 77.4009 15.7679C77.4827 15.9862 77.6465 16.2318 77.892 16.5046C78.1376 16.7775 78.2604 17.0231 78.2604 17.2414C78.2604 17.3778 78.2331 17.5279 78.1786 17.6917C78.124 17.8554 78.0831 18.0055 78.0558 18.1419C78.0285 18.3056 78.0148 18.483 78.0148 18.674C78.0148 18.8377 77.9603 18.9878 77.8511 19.1242C77.7147 19.2607 77.5646 19.3425 77.4009 19.3698C77.2371 19.3971 77.0871 19.4653 76.9506 19.5745C76.896 19.6291 76.8142 19.7246 76.705 19.861C76.5959 19.9974 76.4867 20.1475 76.3776 20.3112C76.2684 20.475 76.1593 20.6387 76.0501 20.8024C75.9683 20.9389 75.9273 21.048 75.9273 21.1299C75.5999 21.1572 75.3816 21.1708 75.2724 21.1708C75.1906 21.1435 75.0951 21.1435 74.9859 21.1708C74.8495 21.0344 74.6994 20.9252 74.5357 20.8434C74.3992 20.7342 74.2219 20.6387 74.0036 20.5568C73.949 20.3385 73.8262 20.0929 73.6352 19.8201C73.4442 19.5199 73.2805 19.2743 73.144 19.0833L72.8575 18.7149C72.4482 18.1419 72.0662 17.5961 71.7114 17.0777C71.384 16.5319 71.1384 15.9316 70.9747 15.2767C71.4931 14.8947 71.8888 14.6082 72.1617 14.4172C72.4618 14.2261 72.7756 14.0488 73.1031 13.8851C73.4305 13.7213 73.7443 13.5712 74.0445 13.4348C74.372 13.2711 74.6721 13.0801 74.945 12.8618C75.1633 12.8618 75.3134 12.8754 75.3952 12.9027C75.4771 12.93 75.5317 12.9573 75.559 12.9846C75.5863 13.0119 75.6135 13.0664 75.6408 13.1483C75.6954 13.2029 75.7909 13.2711 75.9273 13.3529Z" fill="#BAC4D1"/>
<path d="M95.8199 0.295898C95.8472 0.377761 95.97 0.473267 96.1883 0.582417C96.4339 0.691567 96.584 0.746141 96.6385 0.746141C97.0205 0.691567 97.2388 0.70521 97.2934 0.787073C97.3753 0.841648 97.4571 0.909866 97.539 0.991729C97.6482 0.937154 97.73 0.882579 97.7846 0.828004C97.8665 0.746141 97.9756 0.70521 98.112 0.70521C98.2485 0.787073 98.3303 0.909866 98.3576 1.07359C98.4122 1.21003 98.4804 1.34647 98.5623 1.4829C98.535 1.83764 98.535 2.06958 98.5623 2.17873C98.5896 2.2606 98.6032 2.3561 98.6032 2.46525C98.6032 2.87456 98.4804 3.32481 98.2348 3.81598C97.9893 4.27987 97.8119 4.71647 97.7027 5.12578C97.5663 5.26222 97.4708 5.4123 97.4162 5.57602C97.3889 5.73975 97.3207 5.88983 97.2116 6.02626C97.1297 6.29914 97.0069 6.54473 96.8432 6.76303C96.6795 6.95404 96.5703 7.18598 96.5157 7.45886C96.4884 7.48614 96.4202 7.58165 96.3111 7.74537C96.2292 7.9091 96.1337 8.08647 96.0246 8.27748C95.9154 8.46849 95.8063 8.6595 95.6971 8.85052C95.6152 9.04153 95.5607 9.16432 95.5334 9.2189C95.4515 9.35533 95.3833 9.49177 95.3287 9.62821C95.3014 9.73736 95.2469 9.84651 95.165 9.95566C95.1104 10.1194 95.0149 10.324 94.8785 10.5696C94.7693 10.7879 94.6329 11.0199 94.4692 11.2655C94.3327 11.511 94.2099 11.7566 94.1008 12.0022C93.9916 12.2205 93.9371 12.3842 93.9371 12.4934C93.7461 12.7117 93.6369 12.9573 93.6096 13.2302C92.8729 14.6218 92.218 16.0544 91.6449 17.5279C91.0719 18.9742 90.4579 20.4068 89.803 21.8257C89.7484 22.0713 89.7075 22.2214 89.6802 22.2759C89.6802 22.3305 89.6529 22.3715 89.5984 22.3987C89.5165 22.5898 89.421 22.7808 89.3118 22.9718C89.2027 23.1355 89.1208 23.3129 89.0663 23.5039C88.9571 23.804 88.8616 24.0906 88.7797 24.3634C88.7252 24.609 88.6024 24.8683 88.4114 25.1411C88.3841 25.3049 88.3295 25.4686 88.2476 25.6323C88.1658 25.7687 88.1385 25.9188 88.1658 26.0825C88.2476 26.1644 88.3704 26.219 88.5341 26.2463C88.7252 26.2463 88.8752 26.2463 88.9844 26.2463C89.1481 26.2463 89.3118 26.2463 89.4756 26.2463C89.6393 26.219 89.803 26.2053 89.9667 26.2053C90.1305 26.2053 90.2805 26.219 90.417 26.2463C90.5534 26.2463 90.6899 26.2463 90.8263 26.2463H91.8496C91.9587 26.2463 92.0542 26.2599 92.1361 26.2872C92.2452 26.2872 92.3408 26.2872 92.4226 26.2872C92.7228 26.2872 93.0366 26.2736 93.364 26.2463C93.7188 26.219 94.0599 26.2053 94.3873 26.2053C94.5783 26.2053 94.783 26.2053 95.0013 26.2053C95.2196 26.1781 95.4379 26.1917 95.6562 26.2463C95.738 26.2736 95.7926 26.3145 95.8199 26.3691C95.8745 26.4236 95.97 26.4236 96.1064 26.3691C96.352 26.6146 96.5021 26.7647 96.5567 26.8193C96.6112 26.8739 96.6658 26.9285 96.7204 26.983C96.7204 27.0922 96.7204 27.1877 96.7204 27.2695C96.7477 27.3241 96.7613 27.3923 96.7613 27.4742C96.7613 27.7744 96.7886 27.979 96.8432 28.0882C96.6795 28.3338 96.6249 28.5111 96.6795 28.6203L96.4748 29.0705C96.4748 29.207 96.4475 29.357 96.3929 29.5208C96.3384 29.6572 96.3384 29.7936 96.3929 29.9301C96.2565 30.1484 96.161 30.394 96.1064 30.6668C96.0791 30.9124 95.9973 31.1444 95.8608 31.3627C95.6425 31.4445 95.4242 31.4855 95.2059 31.4855C94.9876 31.4582 94.7693 31.4718 94.551 31.5264C94.4146 31.4718 94.2236 31.4445 93.978 31.4445C93.7597 31.4445 93.5414 31.4582 93.3231 31.4855C93.1321 31.5127 92.9274 31.5264 92.7091 31.5264C92.6273 31.5264 92.5454 31.5264 92.4635 31.5264C92.3817 31.4991 92.2998 31.4855 92.218 31.4855C91.9178 31.54 91.7541 31.5537 91.7268 31.5264C91.7268 31.4991 91.6995 31.4855 91.6449 31.4855C91.3448 31.4855 91.0446 31.4991 90.7444 31.5264C90.4443 31.5264 90.1441 31.5264 89.8439 31.5264C89.7348 31.5264 89.6393 31.54 89.5574 31.5673C89.4756 31.5946 89.3937 31.6083 89.3118 31.6083C89.23 31.6083 89.1481 31.5946 89.0663 31.5673C88.9844 31.54 88.9025 31.5264 88.8207 31.5264C88.6842 31.5264 88.5341 31.54 88.3704 31.5673C88.2067 31.5946 88.043 31.6083 87.8792 31.6083C87.7974 31.6083 87.7155 31.5946 87.6337 31.5673C87.5518 31.5673 87.4699 31.5673 87.3881 31.5673C87.2516 31.5673 87.1152 31.5946 86.9788 31.6492C86.8423 31.7038 86.6922 31.7038 86.5285 31.6492L85.9555 31.731C85.5189 31.731 85.0823 31.7583 84.6457 31.8129C84.2364 31.8675 83.8134 31.8948 83.3768 31.8948C83.1312 31.8948 82.9675 31.8811 82.8857 31.8538C82.7492 31.7447 82.5855 31.6765 82.3945 31.6492C82.2035 31.6219 82.0261 31.5673 81.8624 31.4855C81.8351 31.2672 81.7396 31.1034 81.5759 30.9943C81.4121 30.8851 81.262 30.7623 81.1256 30.6259C81.1529 30.2985 81.1256 30.0938 81.0437 30.0119C81.071 29.5753 80.9892 29.2888 80.7982 29.1524C80.8254 28.9068 80.921 28.6749 81.0847 28.4566C81.2484 28.2383 81.3439 28.0063 81.3712 27.7607C81.5895 27.5424 81.7259 27.3787 81.7805 27.2695C81.8351 27.1604 81.8624 27.0376 81.8624 26.9012C82.0261 26.7102 82.1762 26.4782 82.3126 26.2053C82.4763 25.9052 82.6264 25.5914 82.7629 25.2639C82.8993 24.9365 83.0221 24.6227 83.1312 24.3225C83.2404 23.9951 83.3359 23.7085 83.4178 23.4629C83.6361 23.1628 83.7998 22.849 83.9089 22.5215C84.0181 22.1941 84.1409 21.8666 84.2773 21.5392C84.4956 21.1572 84.632 20.8843 84.6866 20.7206C84.7685 20.5295 84.8776 20.3658 85.0141 20.2294C85.0414 20.1202 85.1096 19.9156 85.2187 19.6154C85.3552 19.288 85.4916 18.9469 85.628 18.5921C85.7645 18.2374 85.9009 17.9236 86.0373 17.6507C86.2011 17.3506 86.3102 17.1595 86.3648 17.0777C86.3921 16.9412 86.4467 16.8048 86.5285 16.6684C86.6104 16.5319 86.6513 16.3955 86.6513 16.2591C86.9242 15.9043 87.1425 15.4677 87.3062 14.9493C87.4699 14.4308 87.6473 13.9806 87.8383 13.5985C88.0293 13.1892 88.234 12.7936 88.4523 12.4115C88.6706 12.0022 88.8889 11.5929 89.1072 11.1836C89.9531 9.54635 90.799 7.89545 91.6449 6.23092C91.5903 6.09448 91.4676 6.02626 91.2765 6.02626C91.1128 6.02626 90.9764 5.98533 90.8672 5.90347C90.6489 5.95805 90.4443 5.97169 90.2533 5.9444C90.0622 5.91711 89.8576 5.90347 89.6393 5.90347C89.1208 5.79432 88.6842 5.75339 88.3295 5.78068C88.002 5.78068 87.6746 5.78068 87.3471 5.78068C87.1834 5.78068 87.0061 5.76703 86.815 5.73975C86.6513 5.71246 86.4876 5.69881 86.3239 5.69881C85.9146 5.69881 85.4916 5.7261 85.055 5.78068C84.6457 5.83525 84.25 5.90347 83.868 5.98533C83.6224 5.93076 83.3632 5.90347 83.0903 5.90347C82.8447 5.90347 82.6128 5.87618 82.3945 5.82161C82.2853 5.4123 82.258 5.18035 82.3126 5.12578C82.258 5.04392 82.1898 4.9757 82.108 4.92112C82.0534 4.83926 81.9988 4.7574 81.9442 4.67554C81.9715 4.42995 81.9442 4.27987 81.8624 4.22529C81.8078 4.14343 81.7532 4.03428 81.6986 3.89784C81.6986 3.70683 81.685 3.52946 81.6577 3.36574C81.6577 3.17473 81.685 2.98371 81.7396 2.7927C81.685 2.68355 81.6168 2.60169 81.5349 2.54711C81.4531 2.46525 81.3848 2.38339 81.3303 2.30153C81.3576 2.16509 81.3576 2.05594 81.3303 1.97408C81.3303 1.86493 81.3439 1.75578 81.3712 1.64663C81.5349 1.51019 81.7123 1.41468 81.9033 1.36011C82.0943 1.27825 82.2444 1.15545 82.3535 0.991729C82.7083 0.882579 83.063 0.81436 83.4178 0.787073C83.7998 0.759785 84.1682 0.746141 84.5229 0.746141C84.9049 0.746141 85.2597 0.759785 85.5871 0.787073C85.9418 0.787073 86.2829 0.800716 86.6104 0.828004C86.856 0.828004 87.0743 0.868935 87.2653 0.950797C87.4836 1.00537 87.7019 1.0463 87.9202 1.07359C88.0566 1.10088 88.1931 1.11452 88.3295 1.11452C88.4659 1.08723 88.6024 1.07359 88.7388 1.07359C89.2027 1.07359 89.6666 1.08723 90.1305 1.11452C90.6216 1.11452 91.0992 1.11452 91.5631 1.11452C91.9451 1.11452 92.2998 1.11452 92.6273 1.11452C92.9547 1.11452 93.2822 1.08723 93.6096 1.03266C93.7188 0.92351 93.8006 0.81436 93.8552 0.70521C93.9098 0.59606 93.9644 0.486911 94.0189 0.377761C94.2645 0.377761 94.4282 0.391405 94.5101 0.418692C94.592 0.418692 94.6602 0.418692 94.7148 0.418692L95.2059 0.623348C95.3151 0.623348 95.4379 0.609704 95.5743 0.582417C95.7108 0.527842 95.7926 0.432336 95.8199 0.295898Z" fill="#BAC4D1"/>
<path d="M120.788 15.2767C120.733 15.3859 120.679 15.495 120.624 15.6042C120.57 15.686 120.529 15.7815 120.501 15.8907C120.611 15.9998 120.706 16.1226 120.788 16.2591C120.897 16.3682 120.952 16.491 120.952 16.6274C120.952 16.7366 120.924 16.8457 120.87 16.9549C120.842 17.0368 120.842 17.1186 120.87 17.2005C120.761 17.3915 120.638 17.5689 120.501 17.7326C120.392 17.8963 120.31 18.0737 120.256 18.2647C120.147 18.3738 120.051 18.483 119.969 18.5921C119.915 18.7013 119.86 18.8104 119.806 18.9196C119.669 18.9742 119.574 19.0697 119.519 19.2061C119.492 19.3153 119.424 19.4108 119.314 19.4926C119.287 19.6018 119.151 19.861 118.905 20.2703C118.66 20.6796 118.387 21.1162 118.086 21.5801C117.786 22.044 117.5 22.4942 117.227 22.9308C116.954 23.3674 116.763 23.654 116.654 23.7904C116.599 23.9268 116.531 24.036 116.449 24.1178C116.395 24.1997 116.326 24.2952 116.245 24.4044C116.19 24.4862 116.149 24.5817 116.122 24.6909C116.094 24.7727 116.054 24.841 115.999 24.8955C115.944 25.0047 115.876 25.1002 115.794 25.1821C115.74 25.2639 115.685 25.3731 115.631 25.5095C115.358 25.8642 115.085 26.2872 114.812 26.7784C114.539 27.2695 114.28 27.7061 114.034 28.0882C113.898 28.3065 113.761 28.5248 113.625 28.7431C113.516 28.9614 113.393 29.1797 113.257 29.398C113.12 29.6163 112.984 29.8209 112.847 30.0119C112.711 30.2029 112.574 30.4076 112.438 30.6259C112.22 30.7896 112.029 30.9943 111.865 31.2399C111.701 31.4582 111.51 31.6492 111.292 31.8129C110.937 31.8129 110.719 31.6492 110.637 31.3217C110.282 31.2399 110.105 31.2399 110.105 31.3217C110.105 31.4036 110.105 31.4718 110.105 31.5264C109.996 31.581 109.914 31.6628 109.859 31.772C109.832 31.8811 109.764 31.963 109.655 32.0176C109.436 31.963 109.245 31.8675 109.082 31.731C108.945 31.6219 108.741 31.581 108.468 31.6083C108.358 31.4445 108.236 31.3081 108.099 31.1989C107.963 31.0625 107.84 30.9261 107.731 30.7896C107.676 30.6259 107.594 30.4895 107.485 30.3803C107.403 30.2712 107.322 30.162 107.24 30.0529C107.158 29.9164 107.076 29.7936 106.994 29.6845C106.912 29.5753 106.83 29.4662 106.749 29.357C106.558 29.1115 106.367 28.8795 106.175 28.6612C106.012 28.4156 105.862 28.17 105.725 27.9244C105.507 27.597 105.289 27.2695 105.07 26.9421C104.879 26.5874 104.675 26.2463 104.456 25.9188C104.347 25.7551 104.238 25.5914 104.129 25.4276C104.02 25.2639 103.924 25.1002 103.842 24.9365C103.788 24.8 103.706 24.6363 103.597 24.4453C103.515 24.2543 103.406 24.1315 103.269 24.0769C103.215 23.8586 103.119 23.6949 102.983 23.5857C102.846 23.4766 102.71 23.3402 102.574 23.1764C102.383 22.9581 102.205 22.7262 102.041 22.4806C101.878 22.2077 101.714 21.9349 101.55 21.662C101.005 20.8979 100.486 20.1475 99.9949 19.4108C99.531 18.674 99.0671 17.91 98.6032 17.1186C98.7397 16.682 98.8079 16.3546 98.8079 16.1363C98.8079 15.918 98.8761 15.7406 99.0125 15.6042C99.0125 15.495 99.0398 15.3313 99.0944 15.113C99.4491 14.5127 99.7902 13.9669 100.118 13.4757C100.418 13.0119 100.622 12.6298 100.732 12.3297C100.868 12.0295 101.005 11.7157 101.141 11.3882C101.277 11.3064 101.387 11.2109 101.468 11.1017C101.55 10.9653 101.659 10.8425 101.796 10.7334C101.85 10.4332 101.973 10.1876 102.164 9.99659C102.355 9.77829 102.478 9.51906 102.533 9.2189C102.778 9.02788 102.915 8.80958 102.942 8.564C103.297 8.31841 103.515 7.99096 103.597 7.58165C103.815 7.36335 103.992 7.11776 104.129 6.84489C104.293 6.57201 104.443 6.28549 104.579 5.98533C104.907 5.71246 105.166 5.35772 105.357 4.92112C105.521 4.81197 105.643 4.66189 105.725 4.47088C105.807 4.27987 105.916 4.11614 106.053 3.97971C106.271 3.62497 106.435 3.33845 106.544 3.12015C106.68 2.87456 106.817 2.62898 106.953 2.38339C107.144 2.38339 107.267 2.31517 107.322 2.17873C107.376 2.0423 107.485 1.98772 107.649 2.01501C107.649 1.76942 107.717 1.55112 107.854 1.36011C107.908 1.33282 107.99 1.30553 108.099 1.27825C108.208 1.22367 108.263 1.1691 108.263 1.11452C108.208 0.787073 108.222 0.59606 108.304 0.541486C108.386 0.486911 108.454 0.432336 108.509 0.377761C108.809 0.432336 109.013 0.473267 109.123 0.500554C109.232 0.527842 109.409 0.623348 109.655 0.787073C109.928 0.787073 110.119 0.841648 110.228 0.950797C110.337 1.05995 110.46 1.14181 110.596 1.19638C110.705 1.30553 110.787 1.41468 110.842 1.52383C110.924 1.63298 111.033 1.71485 111.169 1.76942C111.387 2.06958 111.619 2.39703 111.865 2.75177C112.111 3.10651 112.342 3.43396 112.561 3.73412C112.861 4.14343 113.161 4.5391 113.461 4.92112C113.789 5.27586 114.089 5.67153 114.362 6.10813C114.444 6.24456 114.594 6.49015 114.812 6.84489C115.03 7.17234 115.276 7.52707 115.549 7.9091C115.822 8.29112 116.067 8.64586 116.285 8.97331C116.504 9.27347 116.654 9.45084 116.736 9.50541C116.818 9.64185 116.995 9.90108 117.268 10.2831C117.541 10.6651 117.827 11.0744 118.127 11.511C118.455 11.9204 118.769 12.316 119.069 12.698C119.369 13.0801 119.574 13.3257 119.683 13.4348C119.983 13.8441 120.201 14.1852 120.338 14.4581C120.501 14.7037 120.651 14.9766 120.788 15.2767ZM111.415 22.9718C111.715 22.5625 111.947 22.1941 112.111 21.8666C112.274 21.5392 112.438 21.2117 112.602 20.8843C112.875 20.5568 113.038 20.3249 113.093 20.1885C113.147 20.052 113.216 19.9156 113.298 19.7791C113.516 19.4517 113.734 19.1242 113.952 18.7968C114.198 18.4693 114.389 18.1146 114.525 17.7326C114.689 17.6234 114.812 17.487 114.894 17.3233C114.976 17.1595 115.098 17.0095 115.262 16.873C115.098 16.3 114.907 15.8634 114.689 15.5632C114.471 15.2358 114.253 14.922 114.034 14.6218C113.952 14.4854 113.871 14.3489 113.789 14.2125C113.707 14.0761 113.625 13.9396 113.543 13.8032C113.434 13.7213 113.338 13.6395 113.257 13.5576C113.202 13.4757 113.134 13.3939 113.052 13.312C112.997 13.1756 112.915 12.9982 112.806 12.7799C112.697 12.6435 112.588 12.5207 112.479 12.4115C112.37 12.3024 112.274 12.1659 112.192 12.0022C112.083 11.8931 111.947 11.743 111.783 11.552C111.619 11.361 111.442 11.1563 111.251 10.938C111.087 10.6924 110.937 10.4741 110.801 10.2831C110.664 10.0648 110.555 9.88744 110.473 9.751C110.419 9.61456 110.364 9.50541 110.31 9.42355C110.282 9.3144 110.241 9.20525 110.187 9.0961C110.05 8.90509 109.914 8.74137 109.777 8.60493C109.641 8.4412 109.505 8.26384 109.368 8.07282C109.286 8.1274 109.204 8.16833 109.123 8.19562C109.068 8.19562 109.013 8.2229 108.959 8.27748C108.768 8.63222 108.549 8.95967 108.304 9.25983C108.086 9.55999 107.867 9.88744 107.649 10.2422C107.458 10.5696 107.267 10.9107 107.076 11.2655C106.885 11.5929 106.694 11.9204 106.503 12.2478C106.367 12.4388 106.23 12.6298 106.094 12.8208C105.984 12.9846 105.862 13.1756 105.725 13.3939C105.589 13.5849 105.466 13.7895 105.357 14.0078C105.275 14.1989 105.166 14.3899 105.029 14.5809C104.811 14.8538 104.634 15.0993 104.497 15.3176C104.361 15.5359 104.224 15.7952 104.088 16.0953C104.17 16.2591 104.293 16.491 104.456 16.7912C104.647 17.064 104.838 17.3506 105.029 17.6507C105.22 17.9236 105.384 18.1828 105.521 18.4284C105.684 18.674 105.78 18.8377 105.807 18.9196C106.025 19.1106 106.203 19.3289 106.339 19.5745C106.476 19.7928 106.653 20.0111 106.871 20.2294C106.98 20.4477 107.103 20.6387 107.24 20.8024C107.376 20.9661 107.513 21.1435 107.649 21.3345C107.785 21.5255 107.963 21.8121 108.181 22.1941C108.399 22.5488 108.618 22.9172 108.836 23.2992C109.054 23.6812 109.273 24.036 109.491 24.3634C109.709 24.6909 109.887 24.8955 110.023 24.9774C110.296 24.6772 110.514 24.3498 110.678 23.9951C110.869 23.613 111.115 23.2719 111.415 22.9718Z" fill="#BAC4D1"/>
<path d="M136.874 0.991729C137.31 0.937154 137.638 0.978085 137.856 1.11452C138.102 1.22367 138.347 1.29189 138.593 1.31918C138.729 1.34647 138.866 1.36011 139.002 1.36011C139.166 1.33282 139.33 1.31918 139.493 1.31918C139.848 1.31918 140.121 1.36011 140.312 1.44197C140.53 1.52383 140.749 1.7012 140.967 1.97408C141.022 2.02865 141.09 2.11051 141.172 2.21966C141.281 2.30153 141.335 2.38339 141.335 2.46525C141.335 2.68355 141.281 2.87456 141.172 3.03829C141.062 3.20201 141.008 3.43396 141.008 3.73412C141.008 4.198 141.062 4.66189 141.172 5.12578C141.281 5.56238 141.349 6.01262 141.376 6.47651C141.513 8.16833 141.581 9.8738 141.581 11.5929C141.608 13.2847 141.622 14.9629 141.622 16.6274C141.622 16.8457 141.608 17.0504 141.581 17.2414C141.581 17.4051 141.526 17.5552 141.417 17.6917V18.2238C141.39 18.9332 141.404 19.6563 141.458 20.3931C141.513 21.1026 141.54 21.8121 141.54 22.5215C141.54 23.1491 141.499 23.7768 141.417 24.4044C141.363 25.032 141.335 25.6732 141.335 26.3281C141.335 26.9285 141.376 27.5151 141.458 28.0882C141.54 28.6612 141.581 29.2479 141.581 29.8482C141.445 30.0938 141.363 30.2848 141.335 30.4212C141.308 30.5577 141.254 30.6805 141.172 30.7896C141.09 30.8442 140.994 30.8578 140.885 30.8306C140.803 30.8033 140.735 30.8306 140.68 30.9124C140.544 31.0761 140.449 31.2672 140.394 31.4855C140.339 31.7038 140.203 31.8811 139.985 32.0176C139.93 32.3996 139.78 32.6861 139.534 32.8771C139.316 33.0954 139.152 33.3683 139.043 33.6957C138.716 33.723 138.484 33.7094 138.347 33.6548C138.238 33.6002 138.115 33.5457 137.979 33.4911C137.952 33.0272 137.952 32.6861 137.979 32.4678C138.034 32.2768 138.061 32.0721 138.061 31.8538C138.061 31.581 137.993 31.3763 137.856 31.2399C137.72 31.1034 137.624 30.9261 137.57 30.7078C137.27 30.5168 137.065 30.394 136.956 30.3394C136.847 30.2575 136.751 30.162 136.669 30.0529C136.505 29.8346 136.369 29.6026 136.26 29.357C136.151 29.1115 136.028 28.8795 135.892 28.6612C135.51 28.0336 135.114 27.3923 134.705 26.7374C134.322 26.0825 133.9 25.4413 133.436 24.8137C133.354 24.6772 133.258 24.5544 133.149 24.4453C133.04 24.3361 132.944 24.2134 132.863 24.0769C132.399 23.3402 131.962 22.5898 131.553 21.8257C131.144 21.0617 130.666 20.3385 130.12 19.6563C129.902 19.3835 129.738 19.0833 129.629 18.7559C129.52 18.4011 129.356 18.101 129.138 17.8554C129.111 17.9918 129.097 18.1419 129.097 18.3056C129.097 18.4693 129.097 18.6194 129.097 18.7559C129.097 19.6836 129.111 20.6114 129.138 21.5392C129.192 22.4397 129.22 23.3538 129.22 24.2816C129.22 24.4726 129.192 24.65 129.138 24.8137C129.111 24.9501 129.097 25.1138 129.097 25.3049C129.097 25.5777 129.111 25.837 129.138 26.0825C129.165 26.3281 129.179 26.5737 129.179 26.8193C129.179 27.1195 129.165 27.406 129.138 27.6789C129.138 27.9517 129.124 28.2246 129.097 28.4975C129.042 28.8522 128.974 29.1933 128.892 29.5208C128.81 29.8209 128.77 30.1347 128.77 30.4622C128.77 30.6532 128.783 30.8306 128.81 30.9943C128.865 31.158 128.892 31.3081 128.892 31.4445C128.701 31.7447 128.456 31.8948 128.156 31.8948C127.883 31.8948 127.651 32.0039 127.46 32.2222C127.296 32.1949 127.16 32.2086 127.05 32.2632C126.969 32.3177 126.887 32.345 126.805 32.345C126.696 32.345 126.6 32.3314 126.518 32.3041C126.464 32.2768 126.395 32.2632 126.314 32.2632C126.177 32.2632 126.041 32.3314 125.904 32.4678C125.768 32.6042 125.631 32.6725 125.495 32.6725C125.413 32.6725 125.263 32.6179 125.045 32.5087C124.854 32.3996 124.635 32.2632 124.39 32.0994C124.172 31.963 123.967 31.8129 123.776 31.6492C123.585 31.5127 123.489 31.4036 123.489 31.3217C123.462 31.1853 123.448 30.9943 123.448 30.7487C123.448 30.4212 123.462 30.1074 123.489 29.8073C123.544 29.4798 123.599 29.1524 123.653 28.8249C123.735 27.8972 123.776 26.983 123.776 26.0825C123.776 25.1548 123.776 24.227 123.776 23.2992C123.776 22.9172 123.776 22.5352 123.776 22.1532C123.803 21.7711 123.817 21.3891 123.817 21.0071C123.817 20.1066 123.776 19.2061 123.694 18.3056C123.639 17.3778 123.612 16.4637 123.612 15.5632C123.612 14.9356 123.639 14.3217 123.694 13.7213C123.749 13.0937 123.776 12.4797 123.776 11.8794C123.776 11.4155 123.762 10.9653 123.735 10.5287C123.708 10.0921 123.694 9.64185 123.694 9.17797C123.667 8.8778 123.667 8.564 123.694 8.23655C123.721 7.88181 123.735 7.55436 123.735 7.2542C123.735 6.89946 123.68 6.57201 123.571 6.27185C123.489 5.9444 123.448 5.64424 123.448 5.37137C123.448 5.20764 123.476 5.05756 123.53 4.92112C123.612 4.7574 123.653 4.59367 123.653 4.42995C123.653 4.21165 123.612 3.99335 123.53 3.77505C123.476 3.55675 123.448 3.33845 123.448 3.12015C123.448 2.90185 123.476 2.69719 123.53 2.50618C123.585 2.31517 123.612 2.11051 123.612 1.89221C123.994 1.7012 124.335 1.6057 124.635 1.6057C124.936 1.6057 125.154 1.71485 125.29 1.93315C125.29 2.42432 125.318 2.80634 125.372 3.07922C125.427 3.32481 125.468 3.58404 125.495 3.85691C125.495 4.02064 125.481 4.21165 125.454 4.42995C125.454 4.64825 125.468 4.86655 125.495 5.08485C125.522 5.27586 125.577 5.43958 125.659 5.57602C125.768 5.71246 125.945 5.78068 126.191 5.78068C126.245 5.91711 126.314 6.03991 126.395 6.14906C126.477 6.25821 126.532 6.39464 126.559 6.55837C126.723 6.44922 126.818 6.29914 126.846 6.10813C126.873 5.91711 126.873 5.73975 126.846 5.57602C126.982 5.6306 127.105 5.65788 127.214 5.65788C127.323 5.6306 127.432 5.64424 127.542 5.69881C127.596 6.08084 127.664 6.42193 127.746 6.72209C127.828 6.99497 127.855 7.32242 127.828 7.70444C128.374 8.11375 128.838 8.70043 129.22 9.46448C129.629 10.2012 130.011 10.8698 130.366 11.4701C130.557 11.7703 130.775 12.0568 131.021 12.3297C131.294 12.5753 131.498 12.8754 131.635 13.2302C131.853 13.3666 132.03 13.544 132.167 13.7623C132.303 13.9806 132.426 14.1989 132.535 14.4172C133.081 15.3722 133.681 16.3 134.336 17.2005C134.991 18.101 135.673 18.9878 136.383 19.861C136.41 19.67 136.424 19.4926 136.424 19.3289C136.424 19.1379 136.424 18.9469 136.424 18.7559L136.383 15.0721C136.383 14.8538 136.369 14.6491 136.342 14.4581C136.342 14.2671 136.328 14.0624 136.301 13.8441C136.246 13.1346 136.233 12.4388 136.26 11.7566C136.287 11.0744 136.287 10.3786 136.26 9.66914C136.205 8.93238 136.164 8.18197 136.137 7.41792C136.137 6.65388 136.11 5.88983 136.055 5.12578C136.028 4.66189 136.001 4.198 135.973 3.73412C135.946 3.27023 135.932 2.80634 135.932 2.34246C135.932 1.76942 135.987 1.25096 136.096 0.787073C136.151 0.732498 136.205 0.691567 136.26 0.664279C136.342 0.609704 136.437 0.582417 136.546 0.582417C136.71 0.582417 136.819 0.718854 136.874 0.991729Z" fill="#BAC4D1"/>
<path d="M152.632 20.8024C152.687 20.9389 152.878 21.2254 153.205 21.662C153.56 22.0986 153.956 22.5761 154.392 23.0946C154.829 23.613 155.238 24.1178 155.62 24.609C156.03 25.0729 156.316 25.414 156.48 25.6323C156.78 26.0143 157.067 26.3964 157.339 26.7784C157.64 27.1331 157.913 27.5151 158.158 27.9244L158.895 29.1524C159.113 29.4253 159.304 29.6572 159.468 29.8482C159.659 30.0392 159.809 30.2985 159.918 30.6259C159.973 30.8442 160 30.9943 160 31.0761C160 31.2672 159.932 31.4036 159.795 31.4855C159.577 31.4855 159.454 31.5127 159.427 31.5673C159.427 31.6492 159.372 31.7174 159.263 31.772C159.154 31.8266 158.977 31.8538 158.731 31.8538C158.513 31.8811 158.335 31.8948 158.199 31.8948C157.953 31.8948 157.64 31.8811 157.258 31.8538C156.903 31.8538 156.616 31.8948 156.398 31.9766C156.343 32.0039 156.262 32.0449 156.152 32.0994C156.043 32.154 155.961 32.1813 155.907 32.1813C155.689 32.1813 155.525 32.1404 155.416 32.0585C155.334 32.0039 155.211 31.963 155.047 31.9357C154.829 31.6901 154.638 31.4445 154.474 31.1989C154.338 30.9261 154.174 30.6532 153.983 30.3803C153.792 30.1893 153.601 30.0256 153.41 29.8891C153.219 29.7254 153.055 29.5481 152.919 29.357C152.51 28.7567 152.087 28.17 151.65 27.597C151.213 27.024 150.763 26.4646 150.299 25.9188C150.081 25.6187 149.849 25.3458 149.603 25.1002C149.358 24.8546 149.126 24.5817 148.908 24.2816C148.689 24.0087 148.485 23.7222 148.294 23.422C148.103 23.0946 147.912 22.7808 147.721 22.4806C147.557 22.235 147.339 21.9212 147.066 21.5392C146.793 21.1299 146.493 20.7342 146.165 20.3522C145.838 19.9429 145.51 19.5608 145.183 19.2061C144.855 18.8514 144.583 18.5785 144.364 18.3875C144.337 18.2238 144.269 18.101 144.16 18.0191C144.05 17.91 143.928 17.8144 143.791 17.7326C143.737 17.5961 143.682 17.4734 143.628 17.3642C143.546 17.2278 143.505 17.0913 143.505 16.9549C143.505 16.7639 143.546 16.5865 143.628 16.4228C143.682 16.3136 143.723 16.2181 143.75 16.1363C143.75 16.0271 143.778 15.918 143.832 15.8088C143.969 15.5087 144.146 15.2221 144.364 14.9493C144.61 14.6491 144.801 14.3353 144.937 14.0078C144.992 13.926 145.019 13.8441 145.019 13.7623C145.019 13.6531 145.046 13.5576 145.101 13.4757C145.156 13.2574 145.265 13.0801 145.428 12.9436C145.62 12.7799 145.77 12.6025 145.879 12.4115C146.015 12.1932 146.138 11.9749 146.247 11.7566C146.384 11.511 146.52 11.2518 146.656 10.9789C147.066 10.2968 147.489 9.64185 147.925 9.01424C148.389 8.35934 148.853 7.70444 149.317 7.04954C149.672 6.50379 150.013 5.98533 150.34 5.49416C150.695 4.9757 151.05 4.45724 151.404 3.93877C151.595 3.69319 151.8 3.40667 152.018 3.07922C152.237 2.75177 152.469 2.42432 152.714 2.09687C152.987 1.76942 153.26 1.46926 153.533 1.19638C153.806 0.92351 154.079 0.70521 154.352 0.541486C154.761 0.514198 155.034 0.609704 155.17 0.828004C155.307 1.01902 155.511 1.11452 155.784 1.11452C156.139 1.19638 156.371 1.30553 156.48 1.44197C156.589 1.57841 156.712 1.71485 156.848 1.85128C157.23 1.85128 157.53 1.9195 157.749 2.05594C157.994 2.19238 158.226 2.39703 158.445 2.66991C158.363 2.97007 158.24 3.24294 158.076 3.48853C157.913 3.70683 157.762 3.93877 157.626 4.18436C157.408 4.29351 157.244 4.44359 157.135 4.6346C157.053 4.82562 156.917 4.9757 156.726 5.08485C156.453 5.54873 156.166 5.99898 155.866 6.43558C155.566 6.84489 155.266 7.2542 154.965 7.66351C154.802 7.9091 154.624 8.1274 154.433 8.31841C154.27 8.50942 154.12 8.71408 153.983 8.93238C153.929 9.01424 153.874 9.10975 153.819 9.2189C153.792 9.30076 153.751 9.38262 153.697 9.46448C153.369 9.98295 153.014 10.4741 152.632 10.938C152.25 11.3746 151.896 11.8658 151.568 12.4115C151.459 12.6025 151.364 12.8072 151.282 13.0255C151.227 13.2165 151.145 13.4075 151.036 13.5985C150.927 13.7623 150.763 13.9806 150.545 14.2534C150.354 14.5263 150.163 14.8265 149.972 15.1539C149.781 15.4541 149.603 15.7542 149.44 16.0544C149.303 16.3273 149.235 16.5592 149.235 16.7502C149.262 16.8867 149.426 17.1595 149.726 17.5689C150.054 17.9509 150.408 18.3738 150.79 18.8377C151.2 19.2743 151.582 19.6973 151.937 20.1066C152.291 20.4886 152.523 20.7206 152.632 20.8024ZM155.334 13.3529C155.525 13.7623 155.73 14.117 155.948 14.4172C156.03 14.5263 156.125 14.6218 156.234 14.7037C156.343 14.7855 156.425 14.8947 156.48 15.0311C156.534 15.0857 156.589 15.2085 156.644 15.3995C156.698 15.5632 156.753 15.686 156.807 15.7679C156.889 15.9862 157.053 16.2318 157.299 16.5046C157.544 16.7775 157.667 17.0231 157.667 17.2414C157.667 17.3778 157.64 17.5279 157.585 17.6917C157.53 17.8554 157.49 18.0055 157.462 18.1419C157.435 18.3056 157.421 18.483 157.421 18.674C157.421 18.8377 157.367 18.9878 157.258 19.1242C157.121 19.2607 156.971 19.3425 156.807 19.3698C156.644 19.3971 156.494 19.4653 156.357 19.5745C156.303 19.6291 156.221 19.7246 156.112 19.861C156.002 19.9974 155.893 20.1475 155.784 20.3112C155.675 20.475 155.566 20.6387 155.457 20.8024C155.375 20.9389 155.334 21.048 155.334 21.1299C155.006 21.1572 154.788 21.1708 154.679 21.1708C154.597 21.1435 154.502 21.1435 154.392 21.1708C154.256 21.0344 154.106 20.9252 153.942 20.8434C153.806 20.7342 153.628 20.6387 153.41 20.5568C153.355 20.3385 153.233 20.0929 153.042 19.8201C152.851 19.5199 152.687 19.2743 152.551 19.0833L152.264 18.7149C151.855 18.1419 151.473 17.5961 151.118 17.0777C150.79 16.5319 150.545 15.9316 150.381 15.2767C150.9 14.8947 151.295 14.6082 151.568 14.4172C151.868 14.2261 152.182 14.0488 152.51 13.8851C152.837 13.7213 153.151 13.5712 153.451 13.4348C153.778 13.2711 154.079 13.0801 154.352 12.8618C154.57 12.8618 154.72 12.8754 154.802 12.9027C154.884 12.93 154.938 12.9573 154.965 12.9846C154.993 13.0119 155.02 13.0664 155.047 13.1483C155.102 13.2029 155.197 13.2711 155.334 13.3529Z" fill="#BAC4D1"/>
</svg>
