<svg width="160" height="36" viewBox="0 0 160 36" fill="none" xmlns="http://www.w3.org/2000/svg">
<path d="M16.4796 5.34016H10.8031V35.2191H5.67657V5.34016H0V0.785704H16.4796V5.34016Z" fill="#BAC4D1"/>
<path d="M33.3993 35.2191H19.1199V0.785704H33.2673V5.34016H24.2684V15.3952H32.0132V19.8616H24.2684V30.6647H33.3993V35.2191Z" fill="#BAC4D1"/>
<path d="M53.8834 32.0728C53.8834 34.1704 52.8346 35.2191 50.7371 35.2191H40C37.9611 35.2191 36.9417 34.1704 36.9417 32.0728V3.95402C36.9417 1.84181 37.9611 0.785704 40 0.785704H50.7371C52.8346 0.785704 53.8834 1.84181 53.8834 3.95402V12.0068H48.7569V5.20815H42.0902V30.7967H48.7569V23.558H53.8834V32.0728Z" fill="#BAC4D1"/>
<path d="M75.2475 35.2191H70.055V19.7736H63.0803V35.2191H57.9318V0.785704H63.0803V14.9771H70.055V0.785704H75.2475V35.2191Z" fill="#BAC4D1"/>
<path d="M96.8097 35.2191H92.2992L84.0484 13.547C84.2684 14.6031 84.3784 15.4318 84.3784 16.0332V35.2191H79.3619V0.785704H83.8724L92.1232 22.0178C91.9032 20.9617 91.7932 20.133 91.7932 19.5316V0.785704H96.8097V35.2191Z" fill="#BAC4D1"/>
<path d="M118.328 32.0728C118.328 34.1704 117.286 35.2191 115.204 35.2191H104.026C101.988 35.2191 100.968 34.1704 100.968 32.0728V3.95402C100.968 1.84181 101.988 0.785704 104.026 0.785704H115.204C117.286 0.785704 118.328 1.84181 118.328 3.95402V32.0728ZM113.179 30.7967V5.20815H106.117V30.7967H113.179Z" fill="#BAC4D1"/>
<path d="M139.626 0.785704L133.025 35.2631H127.899L121.32 0.785704H126.491L130.341 24.3941C130.37 25.0688 130.414 26.0516 130.473 27.3424C130.458 26.6676 130.502 25.6849 130.605 24.3941L134.477 0.785704H139.626Z" fill="#BAC4D1"/>
<path d="M160 35.2191H154.895L153.861 28.6845H147.415L146.381 35.2191H141.298V35.1311L147.965 0.741699H153.377L160 35.2191ZM153.135 24.2621L150.627 8.7285L148.097 24.2621H153.135Z" fill="#BAC4D1"/>
</svg>
