<svg width="160" height="36" viewBox="0 0 160 36" fill="none" xmlns="http://www.w3.org/2000/svg">
<path d="M26.1384 1.33238H0V9.86738H7.73484V34.6722H18.4036V9.86738H26.1384V1.33238Z" fill="#BAC4D1"/>
<path d="M52.3484 23.5589L58.1273 34.6722H46.3917L42.0353 24.7592H39.7237V34.6722H29.055V1.33238H45.8583C53.5042 1.33238 57.3272 5.22944 57.3272 13.0236C57.3272 18.3579 55.6676 21.8697 52.3484 23.5589ZM42.1687 9.86738H39.7237V16.5354H42.1687C43.4726 16.5354 44.4061 16.402 44.9692 16.1353C45.5619 15.8686 45.8583 15.261 45.8583 14.3127V12.09C45.8583 11.1417 45.5619 10.5342 44.9692 10.2675C44.4061 10.0007 43.4726 9.86738 42.1687 9.86738Z" fill="#BAC4D1"/>
<path d="M71.0312 29.3823H79.833L81.0776 34.6722H92.3243L83.7004 1.33238H67.2083L58.5844 34.6722H69.831L71.0312 29.3823ZM75.7433 11.5566L77.877 20.8918H72.9872L75.1654 11.5566H75.7433Z" fill="#BAC4D1"/>
<path d="M116.527 25.1148L117.327 34.0943C115.045 35.013 112.229 35.4724 108.881 35.4724C105.71 35.4724 103.087 35.1316 101.012 34.45C98.938 33.7387 97.2932 32.6718 96.0781 31.2493C94.8631 29.8268 94.0037 28.0191 93.4999 25.8261C93.0257 23.633 92.7886 21.0399 92.7886 18.0468C92.7886 15.1425 93.0109 12.6087 93.4554 10.4453C93.9296 8.25225 94.7594 6.42967 95.9448 4.97754C97.1302 3.49577 98.7305 2.38444 100.746 1.64355C102.791 0.902669 105.369 0.532227 108.481 0.532227C109.162 0.532227 109.918 0.576679 110.748 0.665584C111.607 0.724856 112.437 0.813762 113.237 0.932302C114.067 1.05084 114.837 1.19902 115.549 1.37684C116.289 1.52501 116.882 1.70282 117.327 1.91027L115.726 10.0896C113.356 9.58584 111.237 9.33394 109.37 9.33394C107.443 9.33394 106.11 9.51176 105.369 9.86738C104.628 10.223 104.258 10.9343 104.258 12.0011V25.9594C104.939 26.1076 105.621 26.2261 106.302 26.315C107.014 26.3743 107.74 26.4039 108.481 26.4039C111.444 26.4039 114.126 25.9742 116.527 25.1148Z" fill="#BAC4D1"/>
<path d="M131.712 34.6722V1.33238H121.043V34.6722H131.712Z" fill="#BAC4D1"/>
<path d="M159.2 25.1148L160 34.0943C157.718 35.013 154.903 35.4724 151.554 35.4724C148.383 35.4724 145.76 35.1316 143.686 34.45C141.611 33.7387 139.966 32.6718 138.751 31.2493C137.536 29.8268 136.677 28.0191 136.173 25.8261C135.699 23.633 135.462 21.0399 135.462 18.0468C135.462 15.1425 135.684 12.6087 136.129 10.4453C136.603 8.25225 137.433 6.42967 138.618 4.97754C139.803 3.49577 141.404 2.38444 143.419 1.64355C145.464 0.902669 148.042 0.532227 151.154 0.532227C151.835 0.532227 152.591 0.576679 153.421 0.665584C154.28 0.724856 155.11 0.813762 155.91 0.932302C156.74 1.05084 157.511 1.19902 158.222 1.37684C158.963 1.52501 159.555 1.70282 160 1.91027L158.4 10.0896C156.029 9.58584 153.91 9.33394 152.043 9.33394C150.117 9.33394 148.783 9.51176 148.042 9.86738C147.301 10.223 146.931 10.9343 146.931 12.0011V25.9594C147.612 26.1076 148.294 26.2261 148.976 26.315C149.687 26.3743 150.413 26.4039 151.154 26.4039C154.117 26.4039 156.799 25.9742 159.2 25.1148Z" fill="#BAC4D1"/>
</svg>
