      <svg
        width="135"
        height="32"
        viewBox="0 0 135 32"
        fill="none"
        xmlns="http://www.w3.org/2000/svg"
      >
        <path
          d="M7.16695 16.2242C6.09979 15.8596 5.12964 15.4951 4.25651 15.1305C3.38338 14.7416 2.63152 14.2798 2.00092 13.7451C1.37033 13.2104 0.873131 12.5784 0.509326 11.8493C0.169775 11.0958 0 10.1843 0 9.11491C0 7.04896 0.788243 5.39619 2.36473 4.15662C3.96547 2.91705 6.1968 2.29727 9.05873 2.29727C10.1016 2.29727 11.0718 2.37018 11.9692 2.51601C12.8666 2.66185 13.6305 2.89275 14.2611 3.20872C14.916 3.50038 15.4253 3.88927 15.7891 4.37537C16.1529 4.83717 16.3348 5.38404 16.3348 6.01598C16.3348 6.64792 16.1893 7.19479 15.8983 7.65659C15.6072 8.09408 15.2555 8.47082 14.8432 8.78679C14.3096 8.44651 13.5942 8.15485 12.6968 7.9118C11.7994 7.64444 10.8171 7.51076 9.74996 7.51076C8.65855 7.51076 7.85818 7.66874 7.34885 7.98471C6.83952 8.27638 6.58486 8.65311 6.58486 9.11491C6.58486 9.47949 6.74251 9.7833 7.05781 10.0264C7.3731 10.2451 7.84605 10.4517 8.47664 10.6461L10.4048 11.2659C12.6846 11.9951 14.4309 12.9308 15.6436 14.0732C16.8805 15.1912 17.499 16.7225 17.499 18.6669C17.499 20.7328 16.6865 22.4099 15.0615 23.6981C13.4365 24.962 11.0475 25.5939 7.89456 25.5939C6.77889 25.5939 5.73598 25.4967 4.76584 25.3022C3.81995 25.1321 2.9832 24.8769 2.25559 24.5366C1.55223 24.1721 0.994399 23.7346 0.582087 23.2241C0.194029 22.6894 0 22.0818 0 21.4012C0 20.6964 0.206156 20.1009 0.618468 19.6148C1.03078 19.1044 1.47947 18.7155 1.96454 18.4481C2.64365 18.9829 3.46827 19.4447 4.43841 19.8336C5.43281 20.2224 6.5121 20.4169 7.67627 20.4169C8.8647 20.4169 9.70145 20.2346 10.1865 19.87C10.6716 19.5054 10.9141 19.0801 10.9141 18.594C10.9141 18.1079 10.7201 17.7433 10.332 17.5002C9.94399 17.2329 9.39828 16.9777 8.69493 16.7346L7.16695 16.2242Z"
          fill="#3B4758"
        />
        <path
          d="M37.9368 24.9741C37.6943 25.047 37.3062 25.12 36.7727 25.1929C36.2633 25.2658 35.7298 25.3022 35.1719 25.3022C34.6384 25.3022 34.1533 25.2658 33.7167 25.1929C33.3044 25.12 32.9527 24.9741 32.6617 24.7554C32.3706 24.5366 32.1402 24.245 31.9704 23.8804C31.8249 23.4915 31.7522 22.9932 31.7522 22.3856V14.2919C31.7522 13.2954 31.4975 12.6027 30.9882 12.2138C30.5031 11.8006 29.8968 11.594 29.1692 11.594C28.6841 11.594 28.2233 11.6548 27.7867 11.7763C27.3501 11.8979 26.9985 12.0437 26.7317 12.2138V24.9741C26.4891 25.047 26.1011 25.12 25.5675 25.1929C25.0582 25.2658 24.5246 25.3022 23.9668 25.3022C23.4332 25.3022 22.9481 25.2658 22.5115 25.1929C22.0992 25.12 21.7475 24.9741 21.4565 24.7554C21.1655 24.5366 20.935 24.245 20.7653 23.8804C20.6198 23.4915 20.547 22.9932 20.547 22.3856V1.23999C20.8138 1.19138 21.2018 1.13061 21.7112 1.0577C22.2447 0.960476 22.7783 0.911865 23.3119 0.911865C23.8455 0.911865 24.3184 0.948323 24.7307 1.02124C25.1673 1.09415 25.5311 1.23999 25.8222 1.45873C26.1132 1.67748 26.3315 1.9813 26.477 2.37018C26.6468 2.73476 26.7317 3.22087 26.7317 3.8285V7.40138C27.047 7.27986 27.5199 7.14618 28.1505 7.00035C28.8054 6.83021 29.5208 6.74514 30.2969 6.74514C32.6981 6.74514 34.5656 7.35277 35.8995 8.56804C37.2577 9.759 37.9368 11.5454 37.9368 13.9274V24.9741Z"
          fill="#3B4758"
        />
        <path
          d="M60.0547 16.1513C60.0547 17.6582 59.8243 19.0072 59.3635 20.1981C58.9027 21.3648 58.2478 22.3492 57.399 23.1512C56.5743 23.9533 55.5799 24.5609 54.4158 24.9741C53.2516 25.3873 51.954 25.5939 50.5231 25.5939C49.0921 25.5939 47.7945 25.3752 46.6303 24.9377C45.4662 24.5002 44.4596 23.8804 43.6108 23.0783C42.7861 22.2519 42.1434 21.2554 41.6826 20.0888C41.2218 18.9221 40.9914 17.6096 40.9914 16.1513C40.9914 14.7173 41.2218 13.4169 41.6826 12.2503C42.1434 11.0836 42.7861 10.0993 43.6108 9.2972C44.4596 8.47082 45.4662 7.83888 46.6303 7.40138C47.7945 6.96389 49.0921 6.74514 50.5231 6.74514C51.954 6.74514 53.2516 6.97604 54.4158 7.43784C55.5799 7.87534 56.5743 8.50728 57.399 9.33366C58.2478 10.1357 58.9027 11.1201 59.3635 12.2868C59.8243 13.4534 60.0547 14.7416 60.0547 16.1513ZM47.3216 16.1513C47.3216 17.6339 47.6005 18.7763 48.1583 19.5783C48.7404 20.3561 49.5408 20.745 50.5594 20.745C51.5781 20.745 52.3542 20.344 52.8878 19.5419C53.4456 18.7398 53.7245 17.6096 53.7245 16.1513C53.7245 14.693 53.4456 13.5749 52.8878 12.7972C52.3299 11.9951 51.5417 11.594 50.5231 11.594C49.5044 11.594 48.7162 11.9951 48.1583 12.7972C47.6005 13.5749 47.3216 14.693 47.3216 16.1513Z"
          fill="#3B4758"
        />
        <path
          d="M71.1849 6.74514C72.6401 6.74514 73.9862 6.93958 75.2231 7.32847C76.4843 7.69305 77.5636 8.26422 78.461 9.04199C79.3583 9.81976 80.0617 10.8041 80.571 11.9951C81.0804 13.1617 81.335 14.5593 81.335 16.1878C81.335 17.7433 81.1167 19.1044 80.6802 20.271C80.2436 21.4377 79.6251 22.4221 78.8248 23.2241C78.0244 24.0019 77.0543 24.5852 75.9143 24.9741C74.7987 25.363 73.5496 25.5575 72.1671 25.5575C71.1242 25.5575 70.1541 25.3995 69.2567 25.0835V31.1355C69.0142 31.2084 68.6261 31.2814 68.0925 31.3543C67.559 31.4515 67.0132 31.5001 66.4554 31.5001C65.9218 31.5001 65.4368 31.4636 65.0002 31.3907C64.5879 31.3178 64.2362 31.172 63.9452 30.9532C63.6541 30.7345 63.4358 30.4307 63.2903 30.0418C63.1448 29.6772 63.072 29.1911 63.072 28.5835V11.0836C63.072 10.4274 63.2054 9.89268 63.4722 9.47949C63.7633 9.0663 64.1513 8.68957 64.6364 8.34929C65.3883 7.86318 66.322 7.4743 67.4377 7.18264C68.5534 6.89097 69.8024 6.74514 71.1849 6.74514ZM71.2576 20.6721C73.7558 20.6721 75.0048 19.1773 75.0048 16.1878C75.0048 14.6322 74.6895 13.4777 74.0589 12.7242C73.4526 11.9708 72.5673 11.594 71.4032 11.594C70.9423 11.594 70.53 11.6548 70.1662 11.7763C69.8024 11.8736 69.4871 11.9951 69.2203 12.1409V20.1617C69.5114 20.3075 69.8267 20.429 70.1662 20.5263C70.5058 20.6235 70.8696 20.6721 71.2576 20.6721Z"
          fill="#3B4758"
        />
        <path
          d="M93.7029 25.5939C92.272 25.5939 90.938 25.3995 89.7011 25.0106C88.4884 24.5974 87.4212 23.9898 86.4996 23.1877C85.6022 22.3856 84.8867 21.3769 84.3532 20.1617C83.8438 18.9464 83.5892 17.5245 83.5892 15.8961C83.5892 14.2919 83.8438 12.9187 84.3532 11.7763C84.8867 10.6097 85.578 9.66178 86.4268 8.93262C87.2757 8.17915 88.2459 7.63228 89.3373 7.29201C90.4287 6.92743 91.5444 6.74514 92.6843 6.74514C93.9697 6.74514 95.1339 6.93958 96.1768 7.32847C97.244 7.71735 98.1535 8.25207 98.9053 8.93262C99.6815 9.61317 100.276 10.4274 100.688 11.3753C101.125 12.3232 101.343 13.3562 101.343 14.4742C101.343 15.3006 101.112 15.9325 100.652 16.37C100.191 16.8075 99.5481 17.0871 98.7234 17.2086L89.7375 18.5575C90.0043 19.3596 90.55 19.9672 91.3746 20.3804C92.1992 20.7693 93.1451 20.9637 94.2123 20.9637C95.2067 20.9637 96.1404 20.8422 97.0136 20.5992C97.9109 20.3318 98.6386 20.028 99.1964 19.6877C99.5844 19.9308 99.9119 20.271 100.179 20.7085C100.445 21.146 100.579 21.6078 100.579 22.0939C100.579 23.1877 100.07 24.0019 99.0509 24.5366C98.2748 24.9498 97.4016 25.2293 96.4315 25.3752C95.4613 25.521 94.5518 25.5939 93.7029 25.5939ZM92.6843 11.2659C92.1022 11.2659 91.5929 11.3631 91.1563 11.5576C90.744 11.752 90.4044 12.0072 90.1377 12.3232C89.8709 12.6149 89.6647 12.9551 89.5192 13.344C89.3979 13.7086 89.3252 14.0853 89.3009 14.4742L95.522 13.4534C95.4492 12.9673 95.1824 12.4812 94.7216 11.9951C94.2608 11.509 93.5817 11.2659 92.6843 11.2659Z"
          fill="#3B4758"
        />
        <path
          d="M110.504 24.9741C110.262 25.047 109.874 25.12 109.34 25.1929C108.831 25.2658 108.297 25.3022 107.74 25.3022C107.206 25.3022 106.721 25.2658 106.284 25.1929C105.872 25.12 105.52 24.9741 105.229 24.7554C104.938 24.5366 104.708 24.245 104.538 23.8804C104.393 23.4915 104.32 22.9932 104.32 22.3856V11.4482C104.32 10.8892 104.417 10.4152 104.611 10.0264C104.829 9.61317 105.132 9.24859 105.52 8.93262C105.908 8.61665 106.381 8.33714 106.939 8.09408C107.521 7.82673 108.14 7.59583 108.795 7.40138C109.449 7.20694 110.129 7.06111 110.832 6.96389C111.535 6.84236 112.239 6.7816 112.942 6.7816C114.106 6.7816 115.028 7.0125 115.707 7.4743C116.386 7.9118 116.726 8.64095 116.726 9.66178C116.726 10.0021 116.677 10.3423 116.58 10.6826C116.483 10.9986 116.362 11.2902 116.216 11.5576C115.707 11.5576 115.185 11.5819 114.652 11.6305C114.118 11.6791 113.597 11.752 113.087 11.8493C112.578 11.9465 112.093 12.0559 111.632 12.1774C111.196 12.2746 110.82 12.3961 110.504 12.542V24.9741Z"
          fill="#3B4758"
        />
        <path
          d="M120.002 25.0106C119.614 24.6703 119.299 24.2693 119.056 23.8075C118.838 23.3457 118.729 22.8231 118.729 22.2398C118.729 21.7537 118.838 21.2797 119.056 20.8179C119.299 20.3318 119.59 19.8822 119.929 19.469L126.187 12.1045H119.493C119.347 11.8371 119.202 11.4968 119.056 11.0836C118.935 10.6704 118.874 10.2208 118.874 9.73469C118.874 8.88401 119.056 8.27637 119.42 7.9118C119.808 7.52291 120.317 7.32847 120.948 7.32847H132.408C132.796 7.66874 133.099 8.06978 133.317 8.53158C133.56 8.99338 133.681 9.51595 133.681 10.0993C133.681 10.5854 133.56 11.0715 133.317 11.5576C133.099 12.0194 132.82 12.4569 132.481 12.8701L126.369 20.2346H133.499C133.645 20.5019 133.778 20.8422 133.899 21.2554C134.045 21.6686 134.118 22.1183 134.118 22.6044C134.118 23.455 133.924 24.0748 133.536 24.4637C133.172 24.8283 132.675 25.0106 132.044 25.0106H120.002Z"
          fill="#3B4758"
        />
      </svg>