      <svg
        width="29"
        height="30"
        viewBox="0 0 29 30"
        fill="none"
        xmlns="http://www.w3.org/2000/svg"
      >
        <path
          d="M9.98356 2.85294C9.98356 1.55345 11.037 0.5 12.3365 0.5C13.636 0.5 14.6894 1.55345 14.6894 2.85294V7.55882C14.6894 8.85832 13.636 9.91176 12.3365 9.91176C11.037 9.91176 9.98356 8.85832 9.98356 7.55882V2.85294Z"
          fill="#FFC045"
        />
        <path
          d="M0.689161 8.65175C-0.22972 7.73286 -0.22972 6.24306 0.689161 5.32418C1.60804 4.4053 3.09784 4.4053 4.01672 5.32418L7.34428 8.65175C8.26316 9.57063 8.26316 11.0604 7.34428 11.9793C6.4254 12.8982 4.9356 12.8982 4.01672 11.9793L0.689161 8.65175Z"
          fill="#FFC045"
        />
        <path
          d="M17.3275 25.2895C16.4086 24.3706 16.4086 22.8808 17.3275 21.9619C18.2464 21.0431 19.7362 21.0431 20.6551 21.9619L23.9826 25.2895C24.9015 26.2084 24.9015 27.6982 23.9826 28.6171C23.0637 29.5359 21.5739 29.5359 20.6551 28.6171L17.3275 25.2895Z"
          fill="#FFC045"
        />
        <path
          d="M21.7483 19.3235C20.4488 19.3235 19.3953 18.2701 19.3953 16.9706C19.3953 15.6711 20.4488 14.6176 21.7483 14.6176H26.4542C27.7536 14.6176 28.8071 15.6711 28.8071 16.9706C28.8071 18.2701 27.7536 19.3235 26.4542 19.3235H21.7483Z"
          fill="#FFC045"
        />
        <path
          d="M20.6547 11.9793C19.7358 12.8982 18.246 12.8982 17.3271 11.9793C16.4083 11.0604 16.4083 9.57063 17.3271 8.65175L20.6547 5.32419C21.5736 4.40531 23.0634 4.40531 23.9823 5.32419C24.9011 6.24307 24.9011 7.73287 23.9823 8.65175L20.6547 11.9793Z"
          fill="#FFC045"
        />
      </svg>